<svg width="34" height="44" viewBox="0 0 34 44" fill="none" xmlns="http://www.w3.org/2000/svg">
<g clip-path="url(#clip0_475_1904)">
<path d="M16.601 8.22321e-05C7.20688 0.220038 -0.215211 7.86571 -7.76532e-05 17.0775C0.188164 24.8287 12.388 39.161 16.2425 43.4986C16.8431 44.176 17.9277 44.1672 18.5103 43.4634C22.2572 38.9675 34.1792 24.0545 33.991 16.2856C33.7758 7.07387 25.9862 -0.211076 16.601 8.22321e-05Z" fill="#FA7CD6"/>
<path d="M17.0854 29.1405C24.5413 29.1405 30.5854 23.208 30.5854 15.8899C30.5854 8.57187 24.5413 2.6394 17.0854 2.6394C9.6296 2.6394 3.58545 8.57187 3.58545 15.8899C3.58545 23.208 9.6296 29.1405 17.0854 29.1405Z" fill="white"/>
<path d="M15.3789 8.14922C20.5018 7.18145 24.9688 11.0525 25 15.9538C24.9688 17.0777 24.0629 17.983 22.9696 17.983H20.4706C18.8775 17.983 17.8466 19.6376 18.5651 21.0736C19.1586 22.2287 18.5338 23.7272 17.2531 23.9457C13.2547 24.5389 8.0068 20.1995 9.16259 14.3617C9.7561 11.2711 12.2551 8.77359 15.3789 8.14922ZM12.0052 17.983C12.5362 17.983 13.0048 17.546 13.0048 16.984C13.0048 16.4533 12.5362 15.985 12.0052 15.985C11.4429 15.985 11.0056 16.4533 11.0056 16.984C11.0056 17.546 11.4429 17.983 12.0052 17.983ZM13.0048 13.9871C13.5358 13.9871 14.0044 13.55 14.0044 12.9881C14.0044 12.4574 13.5358 11.9891 13.0048 11.9891C12.4425 11.9891 12.0052 12.4574 12.0052 12.9881C12.0052 13.55 12.4425 13.9871 13.0048 13.9871ZM17.0032 11.9891C17.5342 11.9891 18.0028 11.552 18.0028 10.9901C18.0028 10.4594 17.5342 9.9911 17.0032 9.9911C16.4409 9.9911 16.0036 10.4594 16.0036 10.9901C16.0036 11.552 16.4409 11.9891 17.0032 11.9891ZM21.0016 13.9871C21.5326 13.9871 22.0012 13.55 22.0012 12.9881C22.0012 12.4574 21.5326 11.9891 21.0016 11.9891C20.4393 11.9891 20.002 12.4574 20.002 12.9881C20.002 13.55 20.4393 13.9871 21.0016 13.9871Z" fill="black"/>
</g>
<defs>
<clipPath id="clip0_475_1904">
<rect width="34" height="44" fill="white"/>
</clipPath>
</defs>
</svg>
