<svg width="34" height="44" viewBox="0 0 34 44" fill="none" xmlns="http://www.w3.org/2000/svg">
<g clip-path="url(#clip0_944_434)">
<path d="M16.601 8.22321e-05C7.20688 0.220038 -0.215211 7.86571 -7.76532e-05 17.0775C0.188164 24.8287 12.388 39.161 16.2425 43.4986C16.8431 44.176 17.9277 44.1672 18.5103 43.4634C22.2572 38.9675 34.1792 24.0545 33.991 16.2856C33.7758 7.07387 25.9862 -0.211076 16.601 8.22321e-05Z" fill="#049C4C"/>
<path d="M17.0854 29.1407C24.5413 29.1407 30.5854 23.2083 30.5854 15.8902C30.5854 8.57212 24.5413 2.63965 17.0854 2.63965C9.6296 2.63965 3.58545 8.57212 3.58545 15.8902C3.58545 23.2083 9.6296 29.1407 17.0854 29.1407Z" fill="white"/>
<path d="M24 18.8438C24 19.0625 23.8839 19.2539 23.7388 19.3633C23.5938 19.7734 23.5938 20.9766 23.7388 21.4141C23.8839 21.5234 24 21.7148 24 21.9062V22.3438C24 22.7266 23.6808 23 23.3036 23H13.7857C12.2478 23 11 21.8242 11 20.375V11.625C11 10.1758 12.2478 9 13.7857 9H23.3036C23.6808 9 24 9.30078 24 9.65625V18.8438ZM14.7143 12.6641V13.2109C14.7143 13.3203 14.7723 13.375 14.8884 13.375H21.0402C21.1272 13.375 21.2143 13.3203 21.2143 13.2109V12.6641C21.2143 12.582 21.1272 12.5 21.0402 12.5H14.8884C14.7723 12.5 14.7143 12.582 14.7143 12.6641ZM14.7143 14.4141V14.9609C14.7143 15.0703 14.7723 15.125 14.8884 15.125H21.0402C21.1272 15.125 21.2143 15.0703 21.2143 14.9609V14.4141C21.2143 14.332 21.1272 14.25 21.0402 14.25H14.8884C14.7723 14.25 14.7143 14.332 14.7143 14.4141ZM22.0558 21.25C21.9978 20.7852 21.9978 19.9922 22.0558 19.5H13.7857C13.2634 19.5 12.8571 19.9102 12.8571 20.375C12.8571 20.8672 13.2634 21.25 13.7857 21.25H22.0558Z" fill="black"/>
</g>
<defs>
<clipPath id="clip0_944_434">
<rect width="34" height="44" fill="white"/>
</clipPath>
</defs>
</svg>
