<svg width="34" height="44" viewBox="0 0 34 44" fill="none" xmlns="http://www.w3.org/2000/svg">
<g clip-path="url(#clip0_828_722)">
<path d="M16.6013 8.22321e-05C7.20713 0.220038 -0.214967 7.86571 0.000166487 17.0775C0.188408 24.8287 12.3882 39.161 16.2427 43.4986C16.8433 44.176 17.9279 44.1672 18.5106 43.4634C22.2575 38.9675 34.1794 24.0545 33.9912 16.2856C33.7761 7.07387 25.9865 -0.211076 16.6013 8.22321e-05Z" fill="#F40414"/>
<path d="M17.0854 29.1407C24.5413 29.1407 30.5854 23.2083 30.5854 15.8902C30.5854 8.57212 24.5413 2.63965 17.0854 2.63965C9.6296 2.63965 3.58545 8.57212 3.58545 15.8902C3.58545 23.2083 9.6296 29.1407 17.0854 29.1407Z" fill="white"/>
<path d="M24.25 9C24.6562 9 25 9.34375 25 9.75V20.25C25 20.6875 24.6562 21 24.25 21H24V20.375C24 20.1875 23.8125 20 23.625 20H22.375C22.1562 20 22 20.1875 22 20.375V21H12V20.375C12 20.1875 11.8125 20 11.625 20H10.375C10.1562 20 10 20.1875 10 20.375V21H9.75C9.3125 21 9 20.6875 9 20.25V9.75C9 9.34375 9.3125 9 9.75 9H10V9.625C10 9.84375 10.1562 10 10.375 10H11.625C11.8125 10 12 9.84375 12 9.625V9H22V9.625C22 9.84375 22.1562 10 22.375 10H23.625C23.8125 10 24 9.84375 24 9.625V9H24.25ZM12 18.625V17.375C12 17.1875 11.8125 17 11.625 17H10.375C10.1562 17 10 17.1875 10 17.375V18.625C10 18.8438 10.1562 19 10.375 19H11.625C11.8125 19 12 18.8438 12 18.625ZM12 15.625V14.375C12 14.1875 11.8125 14 11.625 14H10.375C10.1562 14 10 14.1875 10 14.375V15.625C10 15.8438 10.1562 16 10.375 16H11.625C11.8125 16 12 15.8438 12 15.625ZM12 12.625V11.375C12 11.1875 11.8125 11 11.625 11H10.375C10.1562 11 10 11.1875 10 11.375V12.625C10 12.8438 10.1562 13 10.375 13H11.625C11.8125 13 12 12.8438 12 12.625ZM20.5 19.125V16.125C20.5 15.9375 20.3125 15.75 20.125 15.75H13.875C13.6562 15.75 13.5 15.9375 13.5 16.125V19.125C13.5 19.3438 13.6562 19.5 13.875 19.5H20.125C20.3125 19.5 20.5 19.3438 20.5 19.125ZM20.5 13.875V10.875C20.5 10.6875 20.3125 10.5 20.125 10.5H13.875C13.6562 10.5 13.5 10.6875 13.5 10.875V13.875C13.5 14.0938 13.6562 14.25 13.875 14.25H20.125C20.3125 14.25 20.5 14.0938 20.5 13.875ZM24 18.625V17.375C24 17.1875 23.8125 17 23.625 17H22.375C22.1562 17 22 17.1875 22 17.375V18.625C22 18.8438 22.1562 19 22.375 19H23.625C23.8125 19 24 18.8438 24 18.625ZM24 15.625V14.375C24 14.1875 23.8125 14 23.625 14H22.375C22.1562 14 22 14.1875 22 14.375V15.625C22 15.8438 22.1562 16 22.375 16H23.625C23.8125 16 24 15.8438 24 15.625ZM24 12.625V11.375C24 11.1875 23.8125 11 23.625 11H22.375C22.1562 11 22 11.1875 22 11.375V12.625C22 12.8438 22.1562 13 22.375 13H23.625C23.8125 13 24 12.8438 24 12.625Z" fill="#101010"/>
</g>
<defs>
<clipPath id="clip0_828_722">
<rect width="34" height="44" fill="white"/>
</clipPath>
</defs>
</svg>
