<svg width="52" height="52" viewBox="0 0 52 52" fill="none" xmlns="http://www.w3.org/2000/svg">
<rect width="52" height="52" rx="4" fill="#003AC4"/>
<g clip-path="url(#clip0_501_3703)">
<path d="M43 30.3414C33.8871 21.4624 19.1129 21.4624 10 30.3414C19.1129 39.2203 33.8871 39.2203 43 30.3414ZM26.5 35.6961C23.4641 35.6961 21.0042 33.2994 21.0042 30.3414C21.0042 27.3834 23.4641 24.9867 26.5 24.9867C29.5359 24.9867 31.9958 27.3834 31.9958 30.3414C31.9958 33.2994 29.5359 35.6961 26.5 35.6961Z" fill="white"/>
<path d="M26.5995 15H25.2612V20.916H26.5995V15Z" fill="white"/>
<path d="M35.4596 17.2575L31.4897 21.7339L32.5023 22.5864L36.4722 18.11L35.4596 17.2575Z" fill="white"/>
<path d="M15.7226 17.4816L14.8022 18.4282L19.2102 22.4968L20.1306 21.5502L15.7226 17.4816Z" fill="white"/>
<path d="M26.6428 27.1401C22.2763 27.1401 26.6428 33.5231 26.6428 33.5231C26.6428 33.5231 31.0093 27.1401 26.6428 27.1401ZM26.6428 29.9764C26.0387 29.9764 25.5518 29.4996 25.5518 28.9134C25.5518 28.3273 26.0412 27.8505 26.6428 27.8505C27.2444 27.8505 27.7338 28.3273 27.7338 28.9134C27.7338 29.4996 27.2444 29.9764 26.6428 29.9764Z" fill="white"/>
</g>
<defs>
<clipPath id="clip0_501_3703">
<rect width="33" height="22" fill="white" transform="translate(10 15)"/>
</clipPath>
</defs>
</svg>
