<svg width="34" height="44" viewBox="0 0 34 44" fill="none" xmlns="http://www.w3.org/2000/svg">
<g clip-path="url(#clip0_944_585)">
<path d="M16.601 8.22321e-05C7.20688 0.220038 -0.215211 7.86571 -7.76532e-05 17.0775C0.188164 24.8287 12.388 39.161 16.2425 43.4986C16.8431 44.176 17.9277 44.1672 18.5103 43.4634C22.2572 38.9675 34.1792 24.0545 33.991 16.2856C33.7758 7.07387 25.9862 -0.211076 16.601 8.22321e-05Z" fill="#FC6C04"/>
<path d="M17.0854 29.1407C24.5413 29.1407 30.5854 23.2083 30.5854 15.8902C30.5854 8.57212 24.5413 2.63965 17.0854 2.63965C9.6296 2.63965 3.58545 8.57212 3.58545 15.8902C3.58545 23.2083 9.6296 29.1407 17.0854 29.1407Z" fill="white"/>
<path d="M22.2766 9.70233C22.3501 9.67822 22.4236 9.67822 22.5217 9.67822C22.9384 9.67822 23.2815 10.0157 23.306 10.4255V18.9103C23.306 19.7781 22.2521 20.4531 20.953 20.4531C19.6539 20.4531 18.6 19.7781 18.6 18.9103C18.6 18.0667 19.6539 17.3676 20.953 17.3676C21.2226 17.3917 21.4677 17.4159 21.7373 17.4641V13.0288L15.4626 14.8366V20.4531C15.4626 21.3208 14.4087 21.9958 13.1096 21.9958C11.8105 21.9958 10.7566 21.3208 10.7566 20.4531C10.7566 19.6094 11.8105 18.9103 13.1096 18.9103C13.3792 18.9345 13.6243 18.9586 13.8939 19.0068V12.7154C13.8939 12.378 14.1145 12.0887 14.4332 11.9682L22.2766 9.70233Z" fill="black"/>
</g>
<defs>
<clipPath id="clip0_944_585">
<rect width="34" height="44" fill="white"/>
</clipPath>
</defs>
</svg>
