<svg width="361" height="485" viewBox="0 0 361 485" fill="none" xmlns="http://www.w3.org/2000/svg">
<path d="M320.864 61.6992H40.1358C31.4569 61.6992 24.4213 68.7349 24.4213 77.4138V290.591C24.4213 299.27 31.4569 306.305 40.1358 306.305H320.864C329.543 306.305 336.579 299.27 336.579 290.591V77.4138C336.579 68.7349 329.543 61.6992 320.864 61.6992Z" fill="#049C4C"/>
<path d="M223.968 21.7088C209.882 5.47519 190.868 -1.01683 171.769 0.632842C171.769 0.632842 124.98 4.67169 114.734 47.7551C110.958 63.6332 113.539 80.3005 121.034 94.7991C123.622 99.8121 126.957 105.202 131.181 110.3C144.769 126.712 186.488 171.118 186.488 171.118L194.658 170.414C203.894 154.934 226.137 104.221 232.714 88.0156C240.969 67.6649 240.152 40.36 223.975 21.7159L223.968 21.7088ZM188.45 102.834C166.379 104.74 146.938 88.3924 145.033 66.3139C143.127 44.2424 159.474 24.8019 181.553 22.8963C203.631 20.9906 223.065 37.338 224.97 59.4166C226.876 81.488 210.529 100.929 188.45 102.834Z" fill="#FF4F5B"/>
<path d="M223.968 21.7088C209.882 5.47519 190.868 -1.01683 171.769 0.632842C171.769 0.632842 124.98 4.67169 114.734 47.7551C110.958 63.6332 113.539 80.3005 121.034 94.7991C123.622 99.8121 126.957 105.202 131.181 110.3C144.769 126.712 186.488 171.118 186.488 171.118L194.658 170.414C203.894 154.934 226.137 104.221 232.714 88.0156C240.969 67.6649 240.152 40.36 223.975 21.7159L223.968 21.7088ZM188.45 102.834C166.379 104.74 146.938 88.3924 145.033 66.3139C143.127 44.2424 159.474 24.8019 181.553 22.8963C203.631 20.9906 223.065 37.338 224.97 59.4166C226.876 81.488 210.529 100.929 188.45 102.834Z" fill="#B50B1C"/>
<path d="M232.223 21.325C218.137 5.0914 199.13 -1.40062 180.024 0.249053C180.024 0.249053 133.236 4.2879 122.989 47.3713C119.214 63.2494 121.795 79.9167 129.289 94.4153C131.878 99.4283 135.213 104.818 139.436 109.917C153.025 126.328 194.743 170.734 194.743 170.734C194.743 170.734 233.027 107.214 240.969 87.6318C249.225 67.2811 248.407 39.9762 232.23 21.3321L232.223 21.325ZM188.528 103.161C166.357 105.124 146.952 88.9615 145.111 66.6412C143.29 44.5626 159.552 25.1292 181.631 23.2235C203.702 21.3179 223.157 37.6653 225.049 59.7438C226.94 81.8864 210.543 101.213 188.528 103.161Z" fill="#F40414"/>
<path d="M181.545 22.9032C164.153 24.4036 150.33 36.7903 146.17 52.7679C150.529 40.4381 161.749 31.1516 175.629 29.9499C194.544 28.3144 211.197 42.3224 212.825 61.2367C214.461 80.151 200.453 96.8042 181.538 98.4325C170.559 99.3782 160.341 95.0478 153.387 87.5532C161.465 97.8708 174.421 104.043 188.45 102.834C210.521 100.928 226.876 81.4878 224.97 59.4164C223.064 37.3449 203.624 20.9905 181.553 22.8961L181.545 22.9032Z" fill="#FF4F5B"/>
<path d="M181.545 22.9032C164.153 24.4036 150.33 36.7903 146.17 52.7679C150.529 40.4381 161.749 31.1516 175.629 29.9499C194.544 28.3144 211.197 42.3224 212.825 61.2367C214.461 80.151 200.453 96.8042 181.538 98.4325C170.559 99.3782 160.341 95.0478 153.387 87.5532C161.465 97.8708 174.421 104.043 188.45 102.834C210.521 100.928 226.876 81.4878 224.97 59.4164C223.064 37.3449 203.624 20.9905 181.553 22.8961L181.545 22.9032Z" fill="#B50B1C"/>
<mask id="mask0_917_2371" style="mask-type:luminance" maskUnits="userSpaceOnUse" x="24" y="61" width="313" height="246">
<path d="M320.864 61.6992H40.1358C31.4569 61.6992 24.4213 68.7349 24.4213 77.4138V290.591C24.4213 299.27 31.4569 306.305 40.1358 306.305H320.864C329.543 306.305 336.579 299.27 336.579 290.591V77.4138C336.579 68.7349 329.543 61.6992 320.864 61.6992Z" fill="white"/>
</mask>
<g mask="url(#mask0_917_2371)">
<path d="M-45.057 226.738V305.154H-18.8827L-18.8685 294.41C-18.8401 271.442 -0.195946 252.848 22.7643 252.877C45.7317 252.905 64.3261 271.549 64.2976 294.509L64.2834 305.154H88.0472L88.0614 294.41C88.0898 271.442 106.734 252.848 129.694 252.877C152.662 252.905 171.256 271.549 171.228 294.509L171.213 305.154H199.691V226.738H-45.057Z" fill="#145CCC"/>
<path d="M199.692 198.224H-45.0569V210.106H199.692V198.224Z" fill="#FC6C04"/>
<path d="M26.7389 212.481H19.6069V224.363H26.7389V212.481Z" fill="#FCA0DF"/>
<path d="M48.2982 212.481H41.1663V224.363H48.2982V212.481Z" fill="#FC9FDD"/>
<path d="M69.8581 212.481H62.7261V224.363H69.8581V212.481Z" fill="#FC9DDB"/>
<path d="M91.4104 212.481H84.2784V224.363H91.4104V212.481Z" fill="#FB9CDA"/>
<path d="M112.97 212.481H105.838V224.363H112.97V212.481Z" fill="#FB9AD8"/>
<path d="M134.523 212.481H127.391V224.363H134.523V212.481Z" fill="#FB99D6"/>
<path d="M156.081 212.481H148.949V224.363H156.081V212.481Z" fill="#FB98D4"/>
<path d="M177.641 212.481H170.509V224.363H177.641V212.481Z" fill="#FB96D3"/>
<path d="M199.194 212.481H192.062V224.363H199.194V212.481Z" fill="#FB95D1"/>
<mask id="mask1_917_2371" style="mask-type:luminance" maskUnits="userSpaceOnUse" x="-46" y="226" width="246" height="80">
<path d="M-45.057 226.738V305.154H-18.8827L-18.8685 294.41C-18.8401 271.442 -0.195946 252.848 22.7643 252.877C45.7317 252.905 64.3261 271.549 64.2976 294.509L64.2834 305.154H88.0472L88.0614 294.41C88.0898 271.442 106.734 252.848 129.694 252.877C152.662 252.905 171.256 271.549 171.228 294.509L171.213 305.154H199.691V226.738H-45.057Z" fill="white"/>
</mask>
<g mask="url(#mask1_917_2371)">
<path d="M54.5412 303.831C51.9174 296.87 52.3227 289.318 54.2852 282.243C56.2478 275.168 59.7391 268.321 63.5717 261.928C67.1555 255.962 71.1375 250.224 75.738 244.991C80.2604 239.85 85.3801 235.206 91.1753 231.552C96.6505 228.096 102.652 225.628 109.03 224.476C115.408 223.325 121.559 223.445 127.617 224.96C133.676 226.475 139.151 229.362 143.503 233.72C148.807 239.032 152.078 245.972 154.872 252.841C157.894 260.264 160.405 267.987 161.414 275.965C161.891 279.712 162.054 283.616 160.938 287.271C159.935 290.542 157.823 293.279 155.171 295.398C149.98 299.544 143.062 301.549 136.527 302.125C129.992 302.701 123.074 301.776 116.83 299.373C110.594 296.977 104.984 293.087 100.647 287.996C96.3091 282.905 93.4151 277.053 91.865 270.731C90.3149 264.41 90.2082 257.747 91.8934 251.497C93.4933 245.588 96.9918 239.53 102.858 237.034C109.229 234.318 116.688 236.821 121.524 241.393C124.112 243.839 126.103 246.839 127.646 250.039C128.428 251.668 129.096 253.353 129.672 255.059C130.248 256.766 130.888 258.608 131.109 260.428C131.329 262.248 130.91 264.054 129.466 265.32C128.25 266.387 126.65 266.948 125.086 267.24C122.057 267.795 118.857 267.24 116.119 265.868C113.382 264.495 111.092 262.334 109.748 259.596C108.404 256.858 108.063 253.552 108.675 250.523C109.286 247.494 110.715 244.863 112.927 242.829C113.261 242.516 112.763 242.018 112.422 242.324C107.793 246.583 106.364 253.815 108.938 259.546C111.512 265.277 117.982 268.733 124.133 268.093C127.184 267.773 130.831 266.38 131.692 263.094C132.168 261.267 131.706 259.354 131.201 257.584C130.696 255.813 130.12 254.071 129.438 252.364C126.778 245.723 122.391 239.551 115.615 236.693C112.514 235.384 109.066 234.837 105.731 235.434C102.396 236.031 99.6867 237.645 97.4255 239.914C92.8178 244.536 90.6917 251.177 90.1229 257.555C89.5256 264.268 90.6917 271.101 93.2871 277.309C95.8683 283.474 99.8787 289.07 105.048 293.329C110.218 297.588 116.788 300.674 123.529 302.068C130.305 303.462 137.416 303.305 144.1 301.471C150.435 299.736 157.126 296.386 160.39 290.392C162.232 287 162.637 283.09 162.438 279.292C162.225 275.254 161.464 271.215 160.483 267.297C159.501 263.379 158.136 259.255 156.636 255.351C155.228 251.689 153.706 248.048 151.922 244.543C148.686 238.2 144.356 232.448 138.248 228.629C132.872 225.273 126.622 223.517 120.329 223.104C114.036 222.692 107.238 223.645 101.123 225.835C94.6381 228.153 88.715 231.893 83.4744 236.33C78.2339 240.767 73.3204 246.356 69.1465 252.13C64.8019 258.138 60.8626 264.559 57.6912 271.272C54.4346 278.155 51.9387 285.656 51.9529 293.343C51.9529 296.977 52.5716 300.596 53.8586 304.002C54.0221 304.429 54.7048 304.244 54.5412 303.81V303.831Z" fill="#FCECD4"/>
<path d="M233.225 239.245C227.117 235.96 220.07 234.737 213.187 235.384C206.304 236.031 199.471 238.484 193.747 242.466C188.022 246.448 183.223 252.35 180.236 258.906C177.25 265.462 175.778 273.013 175.977 280.366C176.077 284.056 176.574 287.739 177.477 291.323C178.38 294.907 179.603 298.149 181.552 301.157C183.358 303.952 185.761 306.561 188.847 307.948C192.118 309.42 195.709 309.15 198.852 307.457C201.974 305.779 204.562 303.056 206.503 300.119C208.302 297.389 209.575 294.31 210.314 291.124C211.793 284.739 211.182 277.841 208.38 271.897C205.643 266.088 199.193 258.458 192.111 262.376C188.705 264.26 186.799 267.823 186.01 271.52C185.562 273.618 185.413 275.758 185.32 277.898C185.235 279.818 184.951 282.094 186.024 283.807C186.842 285.116 188.527 285.94 189.999 285.244C190.412 285.044 190.049 284.433 189.644 284.632C188.862 285.002 187.966 284.725 187.319 284.205C186.607 283.637 186.252 282.805 186.088 281.93C185.896 280.92 185.96 279.875 186.003 278.858C186.046 277.841 186.081 276.853 186.16 275.85C186.444 271.954 187.24 267.851 190.028 264.921C191.208 263.677 192.687 262.681 194.358 262.241C196.136 261.771 197.97 262.042 199.599 262.866C202.656 264.402 205.024 267.346 206.723 270.254C209.895 275.687 210.997 282.257 210.108 288.458C209.212 294.758 206.233 300.83 201.305 304.947C198.532 307.258 195.005 308.801 191.357 308.033C188.214 307.379 185.626 305.267 183.642 302.828C181.509 300.204 179.98 297.09 178.964 293.876C177.897 290.505 177.2 287.014 176.887 283.487C176.261 276.448 177.115 269.266 179.518 262.603C181.922 255.941 185.783 250.017 191.066 245.46C196.129 241.094 202.358 238.114 208.892 236.756C215.427 235.398 222.203 235.675 228.447 237.894C229.975 238.434 231.461 239.095 232.884 239.863C233.289 240.077 233.644 239.465 233.239 239.252L233.225 239.245Z" fill="#FCECD4"/>
<path d="M93.3727 319.61C92.1497 313.814 89.085 308.439 84.776 304.379C80.2109 300.084 74.302 297.446 68.0801 296.77C64.4679 296.379 60.7917 296.664 57.2862 297.631C56.8453 297.752 57.0302 298.441 57.4782 298.313C63.5365 296.649 70.0996 297.083 75.909 299.472C81.3771 301.719 85.999 305.758 89.0921 310.785C90.7987 313.558 92.0217 316.609 92.6972 319.795C92.7896 320.242 93.4794 320.05 93.3798 319.603L93.3727 319.61Z" fill="#FCECD4"/>
<path d="M98.5424 303.76C95.8403 299.437 92.8325 295.284 89.4692 291.444C86.1059 287.605 82.4154 284.12 78.3197 281.105C74.224 278.09 69.6447 275.545 64.8024 273.81C59.96 272.075 54.6413 271.065 49.4007 271.051C44.1602 271.037 39.0689 271.968 34.3048 274.002C33.7146 274.251 33.1315 274.521 32.5556 274.805C32.1432 275.004 32.5058 275.623 32.9111 275.417C37.5117 273.156 42.5816 271.982 47.6941 271.79C52.8067 271.598 58.0046 272.374 62.9109 273.924C67.8173 275.474 72.3539 277.813 76.5491 280.714C80.7444 283.615 84.378 286.915 87.7484 290.591C91.1189 294.267 94.1764 298.313 96.9069 302.523C97.2482 303.049 97.5824 303.575 97.9166 304.108C98.1584 304.492 98.777 304.137 98.5282 303.753L98.5424 303.76Z" fill="#FCECD4"/>
<path d="M-61.2481 301.2C-63.0258 296.905 -61.5965 292.041 -58.8305 288.5C-55.7089 284.511 -50.9092 282.328 -46.1806 280.892C-40.9828 279.313 -35.5929 278.311 -30.2812 277.166C-24.9696 276.021 -19.3024 274.777 -13.8912 273.262C-8.48 271.748 -3.24656 269.956 1.80199 267.609C5.99017 265.661 9.97924 263.272 13.6341 260.456C17.289 257.64 20.5314 254.483 23.2833 250.849C26.0351 247.216 28.1541 243.255 29.4909 238.96C30.9059 234.403 31.6383 229.155 29.6828 224.647C27.7416 220.16 23.2477 217.657 18.8249 216.135C13.9114 214.436 8.67088 213.668 3.47299 213.81C-1.72489 213.952 -6.85878 214.983 -11.6727 216.896C-16.0884 218.652 -20.2481 221.134 -23.6683 224.455C-26.9037 227.598 -29.492 231.565 -30.459 236.01C-31.3123 239.935 -30.7363 244.151 -28.9515 247.742C-27.1668 251.333 -24.159 254.17 -20.3121 255.194C-16.4653 256.218 -11.9855 255.173 -8.75732 252.698C-5.52909 250.224 -3.60921 246.37 -3.92919 242.26C-4.22784 238.441 -6.33969 234.609 -10.0372 233.18C-13.7348 231.75 -17.8376 233.507 -19.9779 236.5C-21.0161 237.951 -21.464 239.714 -21.1654 241.485C-21.0872 241.933 -20.4046 241.741 -20.4828 241.293C-21.1298 237.474 -17.6883 234.31 -14.2183 233.578C-12.3695 233.187 -10.5065 233.521 -8.91375 234.538C-7.32096 235.554 -6.14771 237.119 -5.44376 238.847C-3.94341 242.53 -4.48382 246.804 -6.9441 249.932C-9.40438 253.061 -13.3863 254.945 -17.3541 254.881C-21.3218 254.817 -24.9056 252.62 -27.1526 249.385C-29.3995 246.149 -30.3808 242.182 -30.0821 238.313C-29.7408 233.955 -27.5863 229.859 -24.742 226.609C-21.8978 223.36 -17.9727 220.572 -13.8983 218.631C-4.78246 214.294 5.89772 213.334 15.6535 215.908C20.1119 217.081 25.0396 218.944 27.8341 222.826C30.6286 226.709 30.4863 232.198 29.3486 236.799C27.2297 245.417 21.7545 252.784 15.0349 258.415C7.54739 264.694 -1.41913 268.726 -10.7056 271.584C-21.0303 274.763 -31.6963 276.54 -42.1845 279.079C-46.9628 280.238 -51.8336 281.695 -55.844 284.646C-59.3211 287.206 -62.0089 291.039 -62.6347 295.376C-62.9262 297.41 -62.7342 299.479 -61.9449 301.385C-61.7743 301.804 -61.0846 301.619 -61.2623 301.193L-61.2481 301.2Z" fill="#FCECD4"/>
<path d="M23.3259 266.899C28.5167 266.024 32.9751 263.016 36.4735 259.176C40.1142 255.18 42.8518 250.416 45.1272 245.531C47.5021 240.44 49.5998 235.214 52.4227 230.343C55.2243 225.515 58.8152 221.063 63.7144 218.248C69.1683 215.119 75.5536 214.18 81.747 213.839C82.5292 213.796 83.3113 213.761 84.0935 213.732C84.5486 213.718 84.5486 213.007 84.0935 213.021C77.9286 213.242 71.6072 213.846 65.8974 216.356C60.6426 218.667 56.5469 222.67 53.4111 227.406C50.2895 232.113 48.0568 237.34 45.7458 242.474C43.4348 247.607 41.0457 252.421 37.6183 256.737C34.3688 260.833 30.2019 264.381 25.0751 265.789C24.4423 265.96 23.7952 266.102 23.1482 266.209C22.7002 266.287 22.8922 266.97 23.3401 266.891L23.3259 266.899Z" fill="#FCECD4"/>
</g>
<path d="M170.694 226.738V305.154H196.869L196.883 294.41C196.911 271.442 215.555 252.848 238.516 252.877C261.483 252.905 280.077 271.549 280.049 294.509L280.035 305.154H303.799L303.813 294.41C303.841 271.442 322.485 252.848 345.446 252.877C368.413 252.905 387.007 271.549 386.979 294.509L386.965 305.154H415.443V226.738H170.694Z" fill="#145CCC"/>
<path d="M415.443 198.224H170.694V210.106H415.443V198.224Z" fill="#FC6C04"/>
<path d="M177.826 212.481H170.694V224.363H177.826V212.481Z" fill="#FCA4E4"/>
<path d="M199.386 212.481H192.254V224.363H199.386V212.481Z" fill="#FCA3E2"/>
<path d="M220.945 212.481H213.813V224.363H220.945V212.481Z" fill="#FCA1E1"/>
<path d="M242.498 212.481H235.366V224.363H242.498V212.481Z" fill="#FCA0DF"/>
<path d="M264.057 212.481H256.925V224.363H264.057V212.481Z" fill="#FC9FDD"/>
<path d="M285.61 212.481H278.478V224.363H285.61V212.481Z" fill="#FC9DDB"/>
<path d="M307.169 212.481H300.037V224.363H307.169V212.481Z" fill="#FB9CDA"/>
<path d="M328.728 212.481H321.596V224.363H328.728V212.481Z" fill="#FB9AD8"/>
<mask id="mask2_917_2371" style="mask-type:luminance" maskUnits="userSpaceOnUse" x="170" y="226" width="246" height="80">
<path d="M170.694 226.738V305.154H196.869L196.883 294.41C196.911 271.442 215.555 252.848 238.516 252.877C261.483 252.905 280.077 271.549 280.049 294.509L280.035 305.154H303.799L303.813 294.41C303.841 271.442 322.485 252.848 345.446 252.877C368.413 252.905 387.007 271.549 386.979 294.509L386.965 305.154H415.443V226.738H170.694Z" fill="white"/>
</mask>
<g mask="url(#mask2_917_2371)">
<path d="M270.293 303.831C267.669 296.87 268.074 289.318 270.037 282.243C271.999 275.168 275.491 268.321 279.323 261.928C282.907 255.962 286.889 250.224 291.49 244.991C296.012 239.85 301.132 235.206 306.927 231.552C312.402 228.096 318.403 225.628 324.782 224.476C331.16 223.325 337.311 223.445 343.369 224.96C349.427 226.475 354.902 229.362 359.254 233.72C364.559 239.032 367.83 245.972 370.624 252.841C373.646 260.264 376.156 267.987 377.166 275.965C377.642 279.712 377.806 283.616 376.689 287.271C375.687 290.542 373.575 293.279 370.923 295.398C365.732 299.544 358.813 301.549 352.279 302.125C345.744 302.701 338.825 301.776 332.582 299.373C326.339 296.97 320.736 293.087 316.398 287.996C312.174 283.04 309.167 277.053 307.617 270.731C306.081 264.467 305.96 257.747 307.645 251.497C309.245 245.588 312.743 239.53 318.61 237.034C324.981 234.318 332.44 236.821 337.275 241.393C339.863 243.839 341.854 246.839 343.397 250.039C344.18 251.668 344.848 253.353 345.424 255.059C346 256.766 346.64 258.608 346.86 260.428C347.081 262.248 346.661 264.054 345.218 265.32C344.002 266.387 342.402 266.948 340.838 267.24C337.808 267.795 334.609 267.24 331.871 265.868C329.133 264.495 326.844 262.334 325.5 259.596C324.156 256.858 323.815 253.552 324.426 250.523C325.038 247.494 326.467 244.863 328.678 242.829C329.013 242.516 328.515 242.018 328.173 242.324C323.544 246.583 322.115 253.815 324.689 259.546C327.263 265.277 333.734 268.733 339.885 268.093C342.935 267.773 346.583 266.38 347.443 263.094C347.92 261.267 347.458 259.354 346.953 257.584C346.448 255.813 345.872 254.071 345.189 252.364C342.53 245.723 338.143 239.551 331.366 236.693C328.266 235.384 324.817 234.837 321.482 235.434C318.147 236.031 315.438 237.645 313.177 239.914C308.569 244.536 306.443 251.177 305.874 257.555C305.277 264.268 306.443 271.101 309.039 277.309C311.634 283.516 315.63 289.07 320.8 293.329C325.969 297.588 332.539 300.674 339.28 302.068C346.021 303.462 353.167 303.305 359.851 301.471C366.187 299.736 372.878 296.386 376.142 290.392C377.984 287 378.389 283.09 378.19 279.292C377.976 275.254 377.216 271.215 376.234 267.297C375.253 263.379 373.888 259.255 372.387 255.351C370.98 251.689 369.458 248.048 367.673 244.543C364.438 238.2 360.107 232.448 353.999 228.629C348.624 225.273 342.373 223.517 336.08 223.104C329.788 222.692 322.99 223.645 316.875 225.835C310.39 228.153 304.467 231.893 299.226 236.33C293.985 240.767 289.072 246.356 284.898 252.13C280.724 257.904 276.614 264.559 273.443 271.272C270.271 277.984 267.69 285.656 267.705 293.343C267.705 296.977 268.323 300.596 269.61 304.002C269.774 304.429 270.456 304.244 270.293 303.81V303.831Z" fill="#FCECD4"/>
<path d="M309.131 319.61C307.908 313.814 304.843 308.439 300.534 304.379C295.969 300.084 290.06 297.446 283.838 296.77C280.226 296.379 276.55 296.664 273.044 297.631C272.604 297.752 272.789 298.441 273.236 298.313C279.295 296.649 285.858 297.083 291.667 299.472C297.135 301.719 301.757 305.758 304.85 310.785C306.557 313.558 307.78 316.609 308.456 319.795C308.548 320.242 309.238 320.05 309.138 319.603L309.131 319.61Z" fill="#FCECD4"/>
<path d="M314.3 303.76C311.598 299.437 308.59 295.284 305.227 291.444C301.864 287.605 298.173 284.12 294.077 281.105C289.982 278.09 285.403 275.545 280.56 273.81C275.718 272.075 270.399 271.065 265.159 271.051C259.918 271.037 254.827 271.968 250.063 274.002C249.472 274.251 248.889 274.521 248.313 274.805C247.901 275.004 248.264 275.623 248.669 275.417C253.27 273.156 258.339 271.982 263.452 271.79C268.564 271.598 273.762 272.374 278.669 273.924C283.575 275.474 288.112 277.813 292.307 280.714C296.41 283.551 300.136 286.915 303.506 290.591C306.877 294.267 309.934 298.313 312.665 302.523C313.006 303.049 313.34 303.575 313.674 304.108C313.916 304.492 314.535 304.137 314.286 303.753L314.3 303.76Z" fill="#FCECD4"/>
<path d="M154.503 301.2C152.726 296.905 154.155 292.041 156.921 288.5C160.043 284.511 164.842 282.328 169.571 280.892C174.769 279.313 180.159 278.311 185.47 277.166C190.782 276.021 196.449 274.777 201.86 273.262C207.272 271.748 212.505 269.956 217.554 267.609C221.742 265.661 225.731 263.272 229.386 260.456C233.041 257.64 236.283 254.483 239.035 250.849C241.787 247.216 243.906 243.255 245.242 238.96C246.657 234.403 247.39 229.155 245.434 224.647C243.479 220.139 238.999 217.657 234.576 216.135C229.663 214.436 224.422 213.668 219.225 213.81C214.027 213.952 208.893 214.983 204.079 216.896C199.663 218.652 195.503 221.134 192.083 224.455C188.848 227.598 186.26 231.565 185.293 236.01C184.439 239.935 185.015 244.151 186.8 247.742C188.585 251.333 191.593 254.17 195.439 255.194C199.286 256.218 203.766 255.173 206.994 252.698C210.222 250.224 212.142 246.37 211.822 242.26C211.524 238.441 209.412 234.609 205.714 233.18C202.017 231.75 197.914 233.507 195.774 236.5C194.736 237.951 194.288 239.714 194.586 241.485C194.664 241.933 195.347 241.741 195.269 241.293C194.622 237.474 198.063 234.31 201.533 233.578C203.382 233.187 205.245 233.521 206.838 234.538C208.431 235.554 209.604 237.119 210.308 238.847C211.808 242.53 211.268 246.804 208.807 249.932C206.347 253.061 202.365 254.945 198.398 254.881C194.43 254.817 190.846 252.62 188.599 249.385C186.352 246.149 185.371 242.182 185.669 238.313C186.011 233.955 188.165 229.859 191.01 226.609C193.854 223.36 197.779 220.572 201.853 218.631C210.969 214.294 221.649 213.334 231.405 215.908C235.864 217.081 240.791 218.944 243.586 222.826C246.38 226.709 246.238 232.198 245.1 236.799C242.981 245.417 237.506 252.784 230.786 258.415C223.299 264.694 214.332 268.726 205.046 271.584C194.721 274.763 184.055 276.54 173.567 279.079C168.789 280.238 163.918 281.695 159.908 284.646C156.43 287.206 153.743 291.039 153.117 295.376C152.825 297.41 153.017 299.479 153.807 301.385C153.977 301.804 154.667 301.619 154.489 301.193L154.503 301.2Z" fill="#FCECD4"/>
<path d="M239.084 266.899C244.275 266.024 248.733 263.016 252.232 259.176C255.873 255.18 258.61 250.416 260.886 245.531C263.161 240.646 265.358 235.214 268.181 230.343C271.004 225.472 274.574 221.063 279.473 218.248C284.927 215.119 291.312 214.18 297.505 213.839C298.288 213.796 299.07 213.761 299.852 213.732C300.307 213.718 300.307 213.007 299.852 213.021C293.687 213.242 287.366 213.846 281.656 216.356C276.401 218.667 272.305 222.67 269.169 227.406C266.048 232.113 263.815 237.34 261.504 242.474C259.193 247.607 256.804 252.421 253.377 256.737C250.127 260.833 245.96 264.381 240.834 265.789C240.201 265.96 239.554 266.102 238.907 266.209C238.459 266.287 238.651 266.97 239.099 266.891L239.084 266.899Z" fill="#FCECD4"/>
<path d="M168.497 309.022C171.405 303.518 176.375 299.429 181.979 296.87C188.506 293.883 195.773 293.108 202.877 293.499C207.335 293.741 211.751 294.424 216.124 295.291C216.572 295.376 216.764 294.694 216.316 294.608C208.494 293.058 200.438 292.07 192.488 293.165C186.003 294.054 179.682 296.457 174.576 300.61C171.846 302.828 169.528 305.552 167.885 308.666C167.672 309.071 168.284 309.427 168.497 309.022Z" fill="#FCECD4"/>
<path d="M158.094 241.904C161.607 240.816 165.439 241.293 168.71 242.9C171.981 244.507 174.74 247.401 176.411 250.785C178.082 254.17 178.822 258.259 178.53 262.12C178.367 264.246 177.833 266.351 176.681 268.164C175.529 269.977 174.036 271.307 172.479 272.615C168.881 275.623 164.785 278.033 160.412 279.726C159.993 279.889 160.17 280.579 160.604 280.408C164.664 278.837 168.469 276.675 171.896 273.994C173.574 272.679 175.224 271.264 176.539 269.579C177.855 267.894 178.708 265.86 179.049 263.698C180.301 255.912 177.144 246.953 170.147 242.857C166.492 240.717 161.991 239.942 157.902 241.207C157.468 241.342 157.653 242.032 158.094 241.89V241.904Z" fill="#FCECD4"/>
</g>
</g>
<path d="M44.6083 363.306V345.851H47.7702V353.24H55.8583V345.851H59.0288V363.306H55.8583V355.891H47.7702V363.306H44.6083ZM62.3313 363.306V350.215H65.4165V363.306H62.3313ZM63.8825 348.357C63.3938 348.357 62.9734 348.195 62.6211 347.871C62.2688 347.541 62.0927 347.147 62.0927 346.686C62.0927 346.22 62.2688 345.826 62.6211 345.502C62.9734 345.172 63.3938 345.007 63.8825 345.007C64.3768 345.007 64.7972 345.172 65.1438 345.502C65.4961 345.826 65.6722 346.22 65.6722 346.686C65.6722 347.147 65.4961 347.541 65.1438 347.871C64.7972 348.195 64.3768 348.357 63.8825 348.357ZM78.9357 353.675L76.1232 353.982C76.0437 353.698 75.9045 353.431 75.7056 353.181C75.5124 352.931 75.2511 352.729 74.9215 352.576C74.592 352.422 74.1886 352.345 73.7113 352.345C73.0692 352.345 72.5295 352.485 72.092 352.763C71.6602 353.041 71.4471 353.402 71.4528 353.845C71.4471 354.226 71.5863 354.536 71.8704 354.774C72.1602 355.013 72.6374 355.209 73.3022 355.362L75.5352 355.84C76.7738 356.107 77.6942 356.53 78.2965 357.11C78.9045 357.689 79.2113 358.448 79.217 359.385C79.2113 360.209 78.9698 360.936 78.4925 361.567C78.021 362.192 77.3647 362.681 76.5238 363.033C75.6829 363.385 74.717 363.561 73.6261 363.561C72.0238 363.561 70.734 363.226 69.7567 362.556C68.7795 361.88 68.1971 360.939 68.0096 359.735L71.0181 359.445C71.1545 360.036 71.4442 360.482 71.8874 360.783C72.3306 361.084 72.9073 361.235 73.6175 361.235C74.3505 361.235 74.9386 361.084 75.3817 360.783C75.8306 360.482 76.055 360.11 76.055 359.666C76.055 359.291 75.9102 358.982 75.6204 358.737C75.3363 358.493 74.8931 358.306 74.2908 358.175L72.0579 357.706C70.8022 357.445 69.8732 357.005 69.271 356.385C68.6687 355.76 68.3704 354.97 68.3761 354.016C68.3704 353.209 68.5891 352.51 69.0323 351.919C69.4812 351.323 70.1033 350.862 70.8988 350.539C71.6999 350.209 72.6232 350.044 73.6687 350.044C75.2028 350.044 76.4102 350.371 77.2908 351.024C78.1772 351.678 78.7255 352.561 78.9357 353.675ZM88.2979 350.215V352.601H80.7724V350.215H88.2979ZM82.6303 347.078H85.7156V359.368C85.7156 359.783 85.7781 360.101 85.9031 360.323C86.0337 360.539 86.2042 360.686 86.4144 360.766C86.6246 360.845 86.8576 360.885 87.1133 360.885C87.3065 360.885 87.4826 360.871 87.6417 360.843C87.8065 360.814 87.9315 360.789 88.0167 360.766L88.5366 363.178C88.3718 363.235 88.136 363.297 87.8292 363.365C87.5281 363.434 87.1587 363.473 86.7212 363.485C85.9485 363.507 85.2525 363.391 84.6332 363.135C84.0138 362.874 83.5224 362.47 83.1587 361.925C82.8008 361.38 82.6246 360.698 82.6303 359.88V347.078ZM96.4478 363.561C95.1694 363.561 94.0614 363.28 93.1239 362.718C92.1864 362.155 91.4592 361.368 90.9421 360.357C90.4308 359.345 90.1751 358.164 90.1751 356.811C90.1751 355.459 90.4308 354.274 90.9421 353.257C91.4592 352.24 92.1864 351.451 93.1239 350.888C94.0614 350.326 95.1694 350.044 96.4478 350.044C97.7262 350.044 98.8342 350.326 99.7717 350.888C100.709 351.451 101.434 352.24 101.945 353.257C102.462 354.274 102.721 355.459 102.721 356.811C102.721 358.164 102.462 359.345 101.945 360.357C101.434 361.368 100.709 362.155 99.7717 362.718C98.8342 363.28 97.7262 363.561 96.4478 363.561ZM96.4648 361.09C97.158 361.09 97.7376 360.899 98.2035 360.519C98.6694 360.132 99.016 359.615 99.2433 358.968C99.4762 358.32 99.5927 357.598 99.5927 356.803C99.5927 356.002 99.4762 355.277 99.2433 354.63C99.016 353.976 98.6694 353.456 98.2035 353.07C97.7376 352.684 97.158 352.49 96.4648 352.49C95.7546 352.49 95.1637 352.684 94.6921 353.07C94.2262 353.456 93.8768 353.976 93.6438 354.63C93.4165 355.277 93.3029 356.002 93.3029 356.803C93.3029 357.598 93.4165 358.32 93.6438 358.968C93.8768 359.615 94.2262 360.132 94.6921 360.519C95.1637 360.899 95.7546 361.09 96.4648 361.09ZM95.2631 348.493L97.1722 344.598H100.189L97.5728 348.493H95.2631ZM105.339 363.306V350.215H108.331V352.397H108.467C108.706 351.641 109.115 351.059 109.694 350.649C110.279 350.235 110.947 350.027 111.697 350.027C111.868 350.027 112.058 350.036 112.268 350.053C112.484 350.064 112.663 350.084 112.805 350.112V352.951C112.674 352.905 112.467 352.865 112.183 352.831C111.904 352.791 111.635 352.772 111.373 352.772C110.811 352.772 110.305 352.894 109.856 353.138C109.413 353.377 109.064 353.709 108.808 354.135C108.552 354.561 108.424 355.053 108.424 355.61V363.306H105.339ZM114.855 363.306V350.215H117.94V363.306H114.855ZM116.406 348.357C115.917 348.357 115.497 348.195 115.145 347.871C114.792 347.541 114.616 347.147 114.616 346.686C114.616 346.22 114.792 345.826 115.145 345.502C115.497 345.172 115.917 345.007 116.406 345.007C116.9 345.007 117.321 345.172 117.667 345.502C118.02 345.826 118.196 346.22 118.196 346.686C118.196 347.147 118.02 347.541 117.667 347.871C117.321 348.195 116.9 348.357 116.406 348.357ZM124.88 363.57C124.05 363.57 123.303 363.422 122.638 363.127C121.979 362.826 121.456 362.382 121.07 361.797C120.689 361.212 120.499 360.49 120.499 359.632C120.499 358.894 120.635 358.283 120.908 357.8C121.181 357.317 121.553 356.931 122.025 356.641C122.496 356.351 123.027 356.132 123.618 355.985C124.215 355.831 124.831 355.72 125.468 355.652C126.235 355.573 126.857 355.502 127.334 355.439C127.811 355.371 128.158 355.269 128.374 355.132C128.596 354.99 128.706 354.772 128.706 354.476V354.425C128.706 353.783 128.516 353.286 128.135 352.934C127.755 352.581 127.206 352.405 126.49 352.405C125.735 352.405 125.135 352.57 124.692 352.899C124.255 353.229 123.959 353.618 123.806 354.067L120.925 353.658C121.152 352.862 121.527 352.198 122.05 351.664C122.573 351.124 123.212 350.72 123.968 350.453C124.723 350.181 125.559 350.044 126.473 350.044C127.104 350.044 127.732 350.118 128.357 350.266C128.982 350.414 129.553 350.658 130.07 350.999C130.587 351.334 131.002 351.791 131.314 352.371C131.632 352.951 131.792 353.675 131.792 354.544V363.306H128.826V361.507H128.723C128.536 361.871 128.272 362.212 127.931 362.53C127.596 362.843 127.172 363.095 126.661 363.289C126.155 363.476 125.561 363.57 124.88 363.57ZM125.681 361.303C126.3 361.303 126.837 361.181 127.292 360.936C127.746 360.686 128.096 360.357 128.34 359.948C128.59 359.539 128.715 359.093 128.715 358.61V357.067C128.618 357.147 128.453 357.22 128.221 357.289C127.993 357.357 127.738 357.416 127.453 357.468C127.169 357.519 126.888 357.564 126.61 357.604C126.331 357.644 126.09 357.678 125.885 357.706C125.425 357.769 125.013 357.871 124.65 358.013C124.286 358.155 123.999 358.354 123.789 358.61C123.578 358.86 123.473 359.184 123.473 359.581C123.473 360.149 123.681 360.578 124.096 360.868C124.51 361.158 125.039 361.303 125.681 361.303ZM145.24 353.675L142.428 353.982C142.348 353.698 142.209 353.431 142.01 353.181C141.817 352.931 141.556 352.729 141.226 352.576C140.897 352.422 140.493 352.345 140.016 352.345C139.374 352.345 138.834 352.485 138.397 352.763C137.965 353.041 137.752 353.402 137.757 353.845C137.752 354.226 137.891 354.536 138.175 354.774C138.465 355.013 138.942 355.209 139.607 355.362L141.84 355.84C143.078 356.107 143.999 356.53 144.601 357.11C145.209 357.689 145.516 358.448 145.522 359.385C145.516 360.209 145.275 360.936 144.797 361.567C144.326 362.192 143.669 362.681 142.828 363.033C141.988 363.385 141.022 363.561 139.931 363.561C138.328 363.561 137.039 363.226 136.061 362.556C135.084 361.88 134.502 360.939 134.314 359.735L137.323 359.445C137.459 360.036 137.749 360.482 138.192 360.783C138.635 361.084 139.212 361.235 139.922 361.235C140.655 361.235 141.243 361.084 141.686 360.783C142.135 360.482 142.36 360.11 142.36 359.666C142.36 359.291 142.215 358.982 141.925 358.737C141.641 358.493 141.198 358.306 140.596 358.175L138.363 357.706C137.107 357.445 136.178 357.005 135.576 356.385C134.973 355.76 134.675 354.97 134.681 354.016C134.675 353.209 134.894 352.51 135.337 351.919C135.786 351.323 136.408 350.862 137.203 350.539C138.005 350.209 138.928 350.044 139.973 350.044C141.507 350.044 142.715 350.371 143.596 351.024C144.482 351.678 145.03 352.561 145.24 353.675ZM162.755 368.215V361.243H162.627C162.468 361.561 162.238 361.899 161.936 362.257C161.635 362.61 161.238 362.911 160.743 363.161C160.249 363.411 159.627 363.536 158.877 363.536C157.848 363.536 156.928 363.272 156.115 362.743C155.303 362.215 154.661 361.448 154.189 360.442C153.718 359.436 153.482 358.215 153.482 356.777C153.482 355.323 153.721 354.095 154.198 353.095C154.681 352.09 155.331 351.331 156.15 350.82C156.968 350.303 157.88 350.044 158.885 350.044C159.652 350.044 160.283 350.175 160.777 350.436C161.272 350.692 161.664 351.002 161.953 351.365C162.243 351.723 162.468 352.061 162.627 352.38H162.814V350.215H165.848V368.215H162.755ZM159.738 361.005C160.391 361.005 160.948 360.828 161.408 360.476C161.868 360.118 162.218 359.621 162.456 358.985C162.695 358.348 162.814 357.607 162.814 356.76C162.814 355.914 162.695 355.178 162.456 354.553C162.223 353.928 161.877 353.442 161.417 353.095C160.962 352.749 160.402 352.576 159.738 352.576C159.05 352.576 158.476 352.755 158.016 353.112C157.556 353.47 157.209 353.965 156.976 354.595C156.743 355.226 156.627 355.948 156.627 356.76C156.627 357.578 156.743 358.309 156.976 358.951C157.215 359.587 157.564 360.09 158.025 360.459C158.49 360.823 159.061 361.005 159.738 361.005ZM177.363 357.8V350.215H180.448V363.306H177.456V360.979H177.32C177.025 361.712 176.539 362.311 175.863 362.777C175.192 363.243 174.365 363.476 173.382 363.476C172.525 363.476 171.766 363.286 171.107 362.905C170.453 362.519 169.942 361.959 169.573 361.226C169.203 360.487 169.019 359.595 169.019 358.55V350.215H172.104V358.073C172.104 358.902 172.331 359.561 172.786 360.05C173.24 360.539 173.837 360.783 174.576 360.783C175.03 360.783 175.471 360.672 175.897 360.451C176.323 360.229 176.672 359.899 176.945 359.462C177.223 359.019 177.363 358.465 177.363 357.8ZM189.416 363.561C188.103 363.561 186.97 363.289 186.015 362.743C185.066 362.192 184.336 361.414 183.825 360.408C183.314 359.397 183.058 358.206 183.058 356.837C183.058 355.49 183.314 354.309 183.825 353.291C184.342 352.269 185.064 351.473 185.99 350.905C186.916 350.331 188.004 350.044 189.254 350.044C190.061 350.044 190.822 350.175 191.538 350.436C192.26 350.692 192.896 351.09 193.447 351.63C194.004 352.169 194.441 352.857 194.76 353.692C195.078 354.522 195.237 355.51 195.237 356.658V357.604H184.507V355.524H192.279C192.274 354.934 192.146 354.408 191.896 353.948C191.646 353.482 191.297 353.115 190.848 352.848C190.404 352.581 189.887 352.448 189.297 352.448C188.666 352.448 188.112 352.601 187.635 352.908C187.157 353.209 186.785 353.607 186.518 354.101C186.257 354.59 186.123 355.127 186.118 355.712V357.527C186.118 358.289 186.257 358.942 186.535 359.487C186.814 360.027 187.203 360.442 187.703 360.732C188.203 361.016 188.788 361.158 189.458 361.158C189.907 361.158 190.314 361.095 190.677 360.97C191.041 360.84 191.356 360.649 191.623 360.399C191.89 360.149 192.092 359.84 192.228 359.47L195.109 359.794C194.927 360.556 194.581 361.22 194.069 361.789C193.564 362.351 192.916 362.789 192.126 363.101C191.336 363.408 190.433 363.561 189.416 363.561ZM203.936 363.306V345.851H215.289V348.502H207.098V353.24H214.701V355.891H207.098V360.655H215.357V363.306H203.936ZM221.463 355.635V363.306H218.378V350.215H221.327V352.439H221.48C221.782 351.706 222.262 351.124 222.921 350.692C223.586 350.26 224.407 350.044 225.384 350.044C226.287 350.044 227.074 350.237 227.745 350.624C228.421 351.01 228.944 351.57 229.313 352.303C229.688 353.036 229.873 353.925 229.867 354.97V363.306H226.782V355.448C226.782 354.573 226.554 353.888 226.1 353.394C225.651 352.899 225.029 352.652 224.233 352.652C223.694 352.652 223.213 352.772 222.793 353.01C222.378 353.243 222.051 353.581 221.813 354.024C221.58 354.468 221.463 355.005 221.463 355.635ZM238.713 363.561C237.407 363.561 236.284 363.274 235.347 362.701C234.415 362.127 233.696 361.334 233.191 360.323C232.691 359.306 232.441 358.135 232.441 356.811C232.441 355.482 232.696 354.309 233.208 353.291C233.719 352.269 234.441 351.473 235.373 350.905C236.31 350.331 237.418 350.044 238.696 350.044C239.759 350.044 240.699 350.24 241.517 350.632C242.341 351.019 242.998 351.567 243.486 352.277C243.975 352.982 244.253 353.806 244.321 354.749H241.373C241.253 354.118 240.969 353.593 240.52 353.172C240.077 352.746 239.483 352.533 238.739 352.533C238.108 352.533 237.554 352.703 237.077 353.044C236.6 353.38 236.228 353.862 235.961 354.493C235.699 355.124 235.569 355.88 235.569 356.76C235.569 357.652 235.699 358.419 235.961 359.061C236.222 359.698 236.588 360.189 237.06 360.536C237.537 360.877 238.097 361.047 238.739 361.047C239.194 361.047 239.6 360.962 239.958 360.791C240.321 360.615 240.625 360.362 240.87 360.033C241.114 359.703 241.282 359.303 241.373 358.831H244.321C244.248 359.757 243.975 360.578 243.503 361.294C243.032 362.005 242.39 362.561 241.577 362.965C240.765 363.362 239.81 363.561 238.713 363.561ZM250.622 363.57C249.792 363.57 249.045 363.422 248.38 363.127C247.721 362.826 247.199 362.382 246.812 361.797C246.431 361.212 246.241 360.49 246.241 359.632C246.241 358.894 246.377 358.283 246.65 357.8C246.923 357.317 247.295 356.931 247.767 356.641C248.238 356.351 248.77 356.132 249.36 355.985C249.957 355.831 250.574 355.72 251.21 355.652C251.977 355.573 252.599 355.502 253.076 355.439C253.554 355.371 253.9 355.269 254.116 355.132C254.338 354.99 254.449 354.772 254.449 354.476V354.425C254.449 353.783 254.258 353.286 253.877 352.934C253.497 352.581 252.949 352.405 252.233 352.405C251.477 352.405 250.877 352.57 250.434 352.899C249.997 353.229 249.701 353.618 249.548 354.067L246.667 353.658C246.895 352.862 247.27 352.198 247.792 351.664C248.315 351.124 248.954 350.72 249.71 350.453C250.466 350.181 251.301 350.044 252.216 350.044C252.846 350.044 253.474 350.118 254.099 350.266C254.724 350.414 255.295 350.658 255.812 350.999C256.329 351.334 256.744 351.791 257.056 352.371C257.375 352.951 257.534 353.675 257.534 354.544V363.306H254.568V361.507H254.466C254.278 361.871 254.014 362.212 253.673 362.53C253.338 362.843 252.914 363.095 252.403 363.289C251.897 363.476 251.304 363.57 250.622 363.57ZM251.423 361.303C252.042 361.303 252.579 361.181 253.034 360.936C253.488 360.686 253.838 360.357 254.082 359.948C254.332 359.539 254.457 359.093 254.457 358.61V357.067C254.36 357.147 254.196 357.22 253.963 357.289C253.735 357.357 253.48 357.416 253.196 357.468C252.912 357.519 252.63 357.564 252.352 357.604C252.074 357.644 251.832 357.678 251.627 357.706C251.167 357.769 250.755 357.871 250.392 358.013C250.028 358.155 249.741 358.354 249.531 358.61C249.321 358.86 249.216 359.184 249.216 359.581C249.216 360.149 249.423 360.578 249.838 360.868C250.252 361.158 250.781 361.303 251.423 361.303ZM263.721 355.635V363.306H260.636V350.215H263.585V352.439H263.738C264.039 351.706 264.52 351.124 265.179 350.692C265.843 350.26 266.664 350.044 267.642 350.044C268.545 350.044 269.332 350.237 270.002 350.624C270.679 351.01 271.201 351.57 271.571 352.303C271.946 353.036 272.13 353.925 272.125 354.97V363.306H269.039V355.448C269.039 354.573 268.812 353.888 268.358 353.394C267.909 352.899 267.287 352.652 266.491 352.652C265.951 352.652 265.471 352.772 265.051 353.01C264.636 353.243 264.309 353.581 264.071 354.024C263.838 354.468 263.721 355.005 263.721 355.635ZM281.798 350.215V352.601H274.272V350.215H281.798ZM276.13 347.078H279.216V359.368C279.216 359.783 279.278 360.101 279.403 360.323C279.534 360.539 279.704 360.686 279.914 360.766C280.125 360.845 280.358 360.885 280.613 360.885C280.806 360.885 280.983 360.871 281.142 360.843C281.306 360.814 281.431 360.789 281.517 360.766L282.037 363.178C281.872 363.235 281.636 363.297 281.329 363.365C281.028 363.434 280.659 363.473 280.221 363.485C279.449 363.507 278.752 363.391 278.133 363.135C277.514 362.874 277.022 362.47 276.659 361.925C276.301 361.38 276.125 360.698 276.13 359.88V347.078ZM288.145 363.57C287.316 363.57 286.569 363.422 285.904 363.127C285.245 362.826 284.722 362.382 284.336 361.797C283.955 361.212 283.765 360.49 283.765 359.632C283.765 358.894 283.901 358.283 284.174 357.8C284.446 357.317 284.819 356.931 285.29 356.641C285.762 356.351 286.293 356.132 286.884 355.985C287.48 355.831 288.097 355.72 288.733 355.652C289.5 355.573 290.123 355.502 290.6 355.439C291.077 355.371 291.424 355.269 291.64 355.132C291.861 354.99 291.972 354.772 291.972 354.476V354.425C291.972 353.783 291.782 353.286 291.401 352.934C291.02 352.581 290.472 352.405 289.756 352.405C289 352.405 288.401 352.57 287.958 352.899C287.52 353.229 287.225 353.618 287.071 354.067L284.191 353.658C284.418 352.862 284.793 352.198 285.316 351.664C285.838 351.124 286.478 350.72 287.233 350.453C287.989 350.181 288.824 350.044 289.739 350.044C290.37 350.044 290.998 350.118 291.623 350.266C292.248 350.414 292.819 350.658 293.336 350.999C293.853 351.334 294.267 351.791 294.58 352.371C294.898 352.951 295.057 353.675 295.057 354.544V363.306H292.091V361.507H291.989C291.801 361.871 291.537 362.212 291.196 362.53C290.861 362.843 290.438 363.095 289.926 363.289C289.421 363.476 288.827 363.57 288.145 363.57ZM288.946 361.303C289.566 361.303 290.103 361.181 290.557 360.936C291.012 360.686 291.361 360.357 291.605 359.948C291.855 359.539 291.98 359.093 291.98 358.61V357.067C291.884 357.147 291.719 357.22 291.486 357.289C291.259 357.357 291.003 357.416 290.719 357.468C290.435 357.519 290.154 357.564 289.875 357.604C289.597 357.644 289.355 357.678 289.151 357.706C288.691 357.769 288.279 357.871 287.915 358.013C287.551 358.155 287.265 358.354 287.054 358.61C286.844 358.86 286.739 359.184 286.739 359.581C286.739 360.149 286.946 360.578 287.361 360.868C287.776 361.158 288.304 361.303 288.946 361.303ZM298.159 363.306V350.215H301.108V352.439H301.262C301.534 351.689 301.986 351.104 302.617 350.684C303.248 350.257 304 350.044 304.875 350.044C305.762 350.044 306.509 350.26 307.117 350.692C307.73 351.118 308.162 351.701 308.412 352.439H308.549C308.838 351.712 309.327 351.132 310.015 350.701C310.708 350.263 311.529 350.044 312.478 350.044C313.682 350.044 314.665 350.425 315.426 351.186C316.188 351.948 316.569 353.059 316.569 354.519V363.306H313.475V354.996C313.475 354.184 313.259 353.59 312.827 353.215C312.395 352.834 311.867 352.644 311.242 352.644C310.498 352.644 309.915 352.877 309.495 353.343C309.08 353.803 308.873 354.402 308.873 355.141V363.306H305.847V354.868C305.847 354.192 305.642 353.652 305.233 353.249C304.83 352.845 304.301 352.644 303.648 352.644C303.205 352.644 302.801 352.757 302.438 352.985C302.074 353.206 301.784 353.522 301.569 353.931C301.353 354.334 301.245 354.806 301.245 355.345V363.306H298.159Z" fill="black"/>
<path d="M28.4759 410.306H27.0668C26.9834 409.9 26.8376 409.544 26.6293 409.237C26.4247 408.931 26.1747 408.673 25.8793 408.465C25.5876 408.253 25.2637 408.094 24.9077 407.987C24.5516 407.881 24.1804 407.828 23.794 407.828C23.0895 407.828 22.4512 408.006 21.8793 408.362C21.3111 408.719 20.8584 409.243 20.5213 409.936C20.188 410.63 20.0213 411.48 20.0213 412.487C20.0213 413.495 20.188 414.345 20.5213 415.039C20.8584 415.732 21.3111 416.256 21.8793 416.612C22.4512 416.969 23.0895 417.147 23.794 417.147C24.1804 417.147 24.5516 417.094 24.9077 416.987C25.2637 416.881 25.5876 416.724 25.8793 416.516C26.1747 416.304 26.4247 416.044 26.6293 415.737C26.8376 415.427 26.9834 415.071 27.0668 414.669H28.4759C28.3698 415.264 28.1766 415.796 27.8963 416.266C27.616 416.736 27.2675 417.135 26.8509 417.465C26.4342 417.791 25.9664 418.039 25.4474 418.209C24.9323 418.38 24.3812 418.465 23.794 418.465C22.8016 418.465 21.919 418.222 21.1463 417.737C20.3736 417.253 19.7656 416.563 19.3224 415.669C18.8793 414.775 18.6577 413.715 18.6577 412.487C18.6577 411.26 18.8793 410.2 19.3224 409.306C19.7656 408.412 20.3736 407.722 21.1463 407.237C21.919 406.753 22.8016 406.51 23.794 406.51C24.3812 406.51 24.9323 406.595 25.4474 406.766C25.9664 406.936 26.4342 407.186 26.8509 407.516C27.2675 407.842 27.616 408.239 27.8963 408.709C28.1766 409.175 28.3698 409.707 28.4759 410.306ZM34.1165 418.487C33.3286 418.487 32.6373 418.3 32.0426 417.925C31.4517 417.55 30.9896 417.025 30.6562 416.351C30.3267 415.677 30.1619 414.889 30.1619 413.987C30.1619 413.078 30.3267 412.285 30.6562 411.607C30.9896 410.929 31.4517 410.402 32.0426 410.027C32.6373 409.652 33.3286 409.465 34.1165 409.465C34.9044 409.465 35.5938 409.652 36.1847 410.027C36.7794 410.402 37.2415 410.929 37.571 411.607C37.9044 412.285 38.071 413.078 38.071 413.987C38.071 414.889 37.9044 415.677 37.571 416.351C37.2415 417.025 36.7794 417.55 36.1847 417.925C35.5938 418.3 34.9044 418.487 34.1165 418.487ZM34.1165 417.283C34.715 417.283 35.2074 417.13 35.5938 416.823C35.9801 416.516 36.2661 416.112 36.4517 415.612C36.6373 415.112 36.7301 414.571 36.7301 413.987C36.7301 413.404 36.6373 412.861 36.4517 412.357C36.2661 411.853 35.9801 411.446 35.5938 411.135C35.2074 410.825 34.715 410.669 34.1165 410.669C33.518 410.669 33.0256 410.825 32.6392 411.135C32.2528 411.446 31.9669 411.853 31.7812 412.357C31.5956 412.861 31.5028 413.404 31.5028 413.987C31.5028 414.571 31.5956 415.112 31.7812 415.612C31.9669 416.112 32.2528 416.516 32.6392 416.823C33.0256 417.13 33.518 417.283 34.1165 417.283ZM41.4588 413.056V418.306H40.1179V409.578H41.4134V410.942H41.527C41.7315 410.499 42.0421 410.143 42.4588 409.874C42.8755 409.601 43.4134 409.465 44.0724 409.465C44.6634 409.465 45.1804 409.586 45.6236 409.828C46.0668 410.067 46.4115 410.431 46.6577 410.919C46.9039 411.404 47.027 412.018 47.027 412.76V418.306H45.6861V412.851C45.6861 412.166 45.508 411.631 45.152 411.249C44.7959 410.862 44.3073 410.669 43.6861 410.669C43.258 410.669 42.8755 410.762 42.5384 410.948C42.205 411.133 41.9418 411.404 41.7486 411.76C41.5554 412.116 41.4588 412.548 41.4588 413.056ZM50.8182 413.056V418.306H49.4773V406.669H50.8182V410.942H50.9318C51.1364 410.491 51.4432 410.133 51.8523 409.868C52.2652 409.599 52.8144 409.465 53.5 409.465C54.0947 409.465 54.6155 409.584 55.0625 409.823C55.5095 410.058 55.8561 410.419 56.1023 410.908C56.3523 411.393 56.4773 412.01 56.4773 412.76V418.306H55.1364V412.851C55.1364 412.158 54.9564 411.622 54.5966 411.243C54.2405 410.861 53.7462 410.669 53.1136 410.669C52.6742 410.669 52.2803 410.762 51.9318 410.948C51.5871 411.133 51.3144 411.404 51.1136 411.76C50.9167 412.116 50.8182 412.548 50.8182 413.056ZM62.5895 418.487C61.7486 418.487 61.0232 418.302 60.4134 417.931C59.8073 417.556 59.3395 417.033 59.0099 416.362C58.6842 415.688 58.5213 414.904 58.5213 414.01C58.5213 413.116 58.6842 412.328 59.0099 411.647C59.3395 410.961 59.7978 410.427 60.3849 410.044C60.9759 409.658 61.6652 409.465 62.4531 409.465C62.9077 409.465 63.3565 409.541 63.7997 409.692C64.2429 409.844 64.6463 410.09 65.0099 410.431C65.3736 410.768 65.6634 411.215 65.8793 411.772C66.0952 412.328 66.2031 413.014 66.2031 413.828V414.397H59.4759V413.237H64.8395C64.8395 412.745 64.741 412.306 64.544 411.919C64.3509 411.533 64.0743 411.228 63.7145 411.005C63.3584 410.781 62.938 410.669 62.4531 410.669C61.919 410.669 61.4569 410.802 61.0668 411.067C60.6804 411.328 60.383 411.669 60.1747 412.09C59.9664 412.51 59.8622 412.961 59.8622 413.442V414.215C59.8622 414.874 59.9759 415.433 60.2031 415.891C60.4342 416.345 60.7543 416.692 61.1634 416.931C61.5724 417.166 62.0478 417.283 62.5895 417.283C62.9418 417.283 63.2599 417.234 63.544 417.135C63.8319 417.033 64.08 416.881 64.2884 416.681C64.4967 416.476 64.6577 416.222 64.7713 415.919L66.0668 416.283C65.9304 416.722 65.7012 417.109 65.3793 417.442C65.0573 417.772 64.6596 418.029 64.1861 418.215C63.7126 418.397 63.1804 418.487 62.5895 418.487ZM71.7884 418.487C70.9702 418.487 70.2656 418.294 69.6747 417.908C69.0838 417.522 68.6293 416.989 68.3111 416.311C67.9929 415.633 67.8338 414.859 67.8338 413.987C67.8338 413.101 67.9967 412.319 68.3224 411.641C68.652 410.959 69.1103 410.427 69.6974 410.044C70.2884 409.658 70.9777 409.465 71.7656 409.465C72.3793 409.465 72.9323 409.578 73.4247 409.806C73.9171 410.033 74.3205 410.351 74.6349 410.76C74.9493 411.169 75.1444 411.647 75.2202 412.192H73.8793C73.777 411.794 73.5497 411.442 73.1974 411.135C72.849 410.825 72.3793 410.669 71.7884 410.669C71.2656 410.669 70.8073 410.806 70.4134 411.078C70.0232 411.347 69.7183 411.728 69.4986 412.22C69.2827 412.709 69.1747 413.283 69.1747 413.942C69.1747 414.616 69.2808 415.203 69.4929 415.703C69.7088 416.203 70.0118 416.592 70.402 416.868C70.7959 417.145 71.258 417.283 71.7884 417.283C72.1368 417.283 72.4531 417.222 72.7372 417.101C73.0213 416.98 73.2618 416.806 73.4588 416.578C73.6558 416.351 73.7959 416.078 73.8793 415.76H75.2202C75.1444 416.275 74.9569 416.739 74.6577 417.152C74.3622 417.561 73.9702 417.887 73.4815 418.13C72.9967 418.368 72.4323 418.487 71.7884 418.487ZM71.152 418.26H72.2656L72.1747 418.715C72.4702 418.76 72.741 418.883 72.9872 419.084C73.2334 419.289 73.3565 419.612 73.3565 420.056C73.3565 420.544 73.1539 420.942 72.7486 421.249C72.3471 421.559 71.7543 421.715 70.9702 421.715L70.9247 420.828C71.277 420.828 71.5687 420.772 71.7997 420.658C72.0346 420.548 72.152 420.362 72.152 420.101C72.152 419.84 72.0554 419.662 71.8622 419.567C71.669 419.472 71.3565 419.408 70.9247 419.374L71.152 418.26ZM79.7486 418.51C79.1955 418.51 78.6937 418.406 78.2429 418.198C77.7921 417.986 77.4342 417.681 77.169 417.283C76.9039 416.881 76.7713 416.397 76.7713 415.828C76.7713 415.328 76.8698 414.923 77.0668 414.612C77.2637 414.298 77.527 414.052 77.8565 413.874C78.1861 413.696 78.5497 413.563 78.9474 413.476C79.349 413.385 79.7524 413.313 80.1577 413.26C80.688 413.192 81.1179 413.141 81.4474 413.107C81.7808 413.069 82.0232 413.006 82.1747 412.919C82.33 412.832 82.4077 412.681 82.4077 412.465V412.419C82.4077 411.859 82.2543 411.423 81.9474 411.112C81.6444 410.802 81.1842 410.647 80.5668 410.647C79.9266 410.647 79.4247 410.787 79.0611 411.067C78.6974 411.347 78.4418 411.647 78.294 411.965L77.0213 411.51C77.2486 410.98 77.5516 410.567 77.9304 410.272C78.313 409.972 78.7296 409.764 79.1804 409.647C79.6349 409.525 80.0819 409.465 80.5213 409.465C80.8016 409.465 81.1236 409.499 81.4872 409.567C81.8546 409.631 82.2088 409.766 82.5497 409.97C82.8944 410.175 83.1804 410.484 83.4077 410.897C83.6349 411.309 83.7486 411.862 83.7486 412.556V418.306H82.4077V417.124H82.3395C82.2486 417.313 82.0971 417.516 81.8849 417.732C81.6728 417.948 81.3906 418.131 81.0384 418.283C80.6861 418.434 80.2562 418.51 79.7486 418.51ZM79.9531 417.306C80.4834 417.306 80.9304 417.201 81.294 416.993C81.6615 416.785 81.938 416.516 82.1236 416.186C82.313 415.857 82.4077 415.51 82.4077 415.147V413.919C82.3509 413.987 82.2259 414.05 82.0327 414.107C81.8433 414.16 81.6236 414.207 81.3736 414.249C81.1274 414.287 80.8868 414.321 80.652 414.351C80.4209 414.378 80.2334 414.4 80.0895 414.419C79.741 414.465 79.4152 414.539 79.1122 414.641C78.813 414.739 78.5705 414.889 78.3849 415.09C78.2031 415.287 78.1122 415.556 78.1122 415.897C78.1122 416.362 78.2846 416.715 78.6293 416.953C78.9777 417.188 79.419 417.306 79.9531 417.306ZM94.2415 418.487C93.4233 418.487 92.7188 418.294 92.1278 417.908C91.5369 417.522 91.0824 416.989 90.7642 416.311C90.446 415.633 90.2869 414.859 90.2869 413.987C90.2869 413.101 90.4498 412.319 90.7756 411.641C91.1051 410.959 91.5634 410.427 92.1506 410.044C92.7415 409.658 93.4309 409.465 94.2188 409.465C94.8324 409.465 95.3854 409.578 95.8778 409.806C96.3703 410.033 96.7737 410.351 97.0881 410.76C97.4025 411.169 97.5975 411.647 97.6733 412.192H96.3324C96.2301 411.794 96.0028 411.442 95.6506 411.135C95.3021 410.825 94.8324 410.669 94.2415 410.669C93.7188 410.669 93.2604 410.806 92.8665 411.078C92.4763 411.347 92.1714 411.728 91.9517 412.22C91.7358 412.709 91.6278 413.283 91.6278 413.942C91.6278 414.616 91.7339 415.203 91.946 415.703C92.1619 416.203 92.465 416.592 92.8551 416.868C93.2491 417.145 93.7112 417.283 94.2415 417.283C94.59 417.283 94.9062 417.222 95.1903 417.101C95.4744 416.98 95.715 416.806 95.9119 416.578C96.1089 416.351 96.2491 416.078 96.3324 415.76H97.6733C97.5975 416.275 97.41 416.739 97.1108 417.152C96.8153 417.561 96.4233 417.887 95.9347 418.13C95.4498 418.368 94.8854 418.487 94.2415 418.487ZM105.134 414.737V409.578H106.474V418.306H105.134V416.828H105.043C104.838 417.272 104.52 417.648 104.088 417.959C103.656 418.266 103.111 418.419 102.452 418.419C101.906 418.419 101.421 418.3 100.997 418.061C100.573 417.819 100.24 417.455 99.9972 416.97C99.7547 416.482 99.6335 415.866 99.6335 415.124V409.578H100.974V415.033C100.974 415.669 101.152 416.177 101.509 416.556C101.868 416.934 102.327 417.124 102.884 417.124C103.217 417.124 103.556 417.039 103.901 416.868C104.249 416.698 104.541 416.436 104.776 416.084C105.014 415.732 105.134 415.283 105.134 414.737ZM108.93 418.306V409.578H110.226V410.897H110.317C110.476 410.465 110.764 410.114 111.18 409.845C111.597 409.576 112.067 409.442 112.589 409.442C112.688 409.442 112.811 409.444 112.959 409.448C113.107 409.451 113.218 409.457 113.294 409.465V410.828C113.249 410.817 113.144 410.8 112.982 410.777C112.822 410.751 112.654 410.737 112.476 410.737C112.052 410.737 111.673 410.826 111.339 411.005C111.01 411.179 110.749 411.421 110.555 411.732C110.366 412.039 110.271 412.389 110.271 412.783V418.306H108.93ZM114.884 418.306V409.578H116.224V418.306H114.884ZM115.565 408.124C115.304 408.124 115.079 408.035 114.889 407.857C114.704 407.679 114.611 407.465 114.611 407.215C114.611 406.965 114.704 406.751 114.889 406.573C115.079 406.395 115.304 406.306 115.565 406.306C115.827 406.306 116.05 406.395 116.236 406.573C116.425 406.751 116.52 406.965 116.52 407.215C116.52 407.465 116.425 407.679 116.236 407.857C116.05 408.035 115.827 408.124 115.565 408.124ZM122.226 418.487C121.438 418.487 120.747 418.3 120.152 417.925C119.561 417.55 119.099 417.025 118.766 416.351C118.436 415.677 118.271 414.889 118.271 413.987C118.271 413.078 118.436 412.285 118.766 411.607C119.099 410.929 119.561 410.402 120.152 410.027C120.747 409.652 121.438 409.465 122.226 409.465C123.014 409.465 123.703 409.652 124.294 410.027C124.889 410.402 125.351 410.929 125.68 411.607C126.014 412.285 126.18 413.078 126.18 413.987C126.18 414.889 126.014 415.677 125.68 416.351C125.351 417.025 124.889 417.55 124.294 417.925C123.703 418.3 123.014 418.487 122.226 418.487ZM122.226 417.283C122.824 417.283 123.317 417.13 123.703 416.823C124.089 416.516 124.375 416.112 124.561 415.612C124.747 415.112 124.839 414.571 124.839 413.987C124.839 413.404 124.747 412.861 124.561 412.357C124.375 411.853 124.089 411.446 123.703 411.135C123.317 410.825 122.824 410.669 122.226 410.669C121.627 410.669 121.135 410.825 120.749 411.135C120.362 411.446 120.076 411.853 119.891 412.357C119.705 412.861 119.612 413.404 119.612 413.987C119.612 414.571 119.705 415.112 119.891 415.612C120.076 416.112 120.362 416.516 120.749 416.823C121.135 417.13 121.627 417.283 122.226 417.283ZM134.409 411.533L133.205 411.874C133.129 411.673 133.017 411.478 132.869 411.289C132.725 411.095 132.528 410.936 132.278 410.811C132.028 410.686 131.708 410.624 131.318 410.624C130.784 410.624 130.339 410.747 129.983 410.993C129.631 411.236 129.455 411.544 129.455 411.919C129.455 412.253 129.576 412.516 129.818 412.709C130.061 412.902 130.439 413.063 130.955 413.192L132.25 413.51C133.03 413.7 133.612 413.989 133.994 414.38C134.377 414.766 134.568 415.264 134.568 415.874C134.568 416.374 134.424 416.821 134.136 417.215C133.852 417.609 133.455 417.919 132.943 418.147C132.432 418.374 131.837 418.487 131.159 418.487C130.269 418.487 129.532 418.294 128.949 417.908C128.366 417.522 127.996 416.957 127.841 416.215L129.114 415.897C129.235 416.366 129.464 416.719 129.801 416.953C130.142 417.188 130.587 417.306 131.136 417.306C131.761 417.306 132.258 417.173 132.625 416.908C132.996 416.639 133.182 416.317 133.182 415.942C133.182 415.639 133.076 415.385 132.864 415.181C132.652 414.972 132.326 414.817 131.886 414.715L130.432 414.374C129.633 414.184 129.045 413.891 128.67 413.493C128.299 413.092 128.114 412.59 128.114 411.987C128.114 411.495 128.252 411.059 128.528 410.681C128.809 410.302 129.189 410.005 129.67 409.789C130.155 409.573 130.705 409.465 131.318 409.465C132.182 409.465 132.86 409.654 133.352 410.033C133.848 410.412 134.201 410.912 134.409 411.533ZM136.587 418.306V409.578H137.928V418.306H136.587ZM137.268 408.124C137.007 408.124 136.782 408.035 136.592 407.857C136.407 407.679 136.314 407.465 136.314 407.215C136.314 406.965 136.407 406.751 136.592 406.573C136.782 406.395 137.007 406.306 137.268 406.306C137.53 406.306 137.753 406.395 137.939 406.573C138.128 406.751 138.223 406.965 138.223 407.215C138.223 407.465 138.128 407.679 137.939 407.857C137.753 408.035 137.53 408.124 137.268 408.124ZM143.679 418.487C142.952 418.487 142.31 418.304 141.753 417.936C141.196 417.565 140.76 417.042 140.446 416.368C140.132 415.69 139.974 414.889 139.974 413.965C139.974 413.048 140.132 412.253 140.446 411.578C140.76 410.904 141.198 410.383 141.759 410.016C142.319 409.648 142.967 409.465 143.702 409.465C144.27 409.465 144.719 409.559 145.048 409.749C145.382 409.934 145.635 410.147 145.81 410.385C145.988 410.62 146.126 410.813 146.224 410.965H146.338V406.669H147.679V418.306H146.384V416.965H146.224C146.126 417.124 145.986 417.325 145.804 417.567C145.622 417.806 145.363 418.02 145.026 418.209C144.688 418.395 144.24 418.487 143.679 418.487ZM143.861 417.283C144.399 417.283 144.853 417.143 145.224 416.862C145.596 416.578 145.878 416.186 146.071 415.686C146.264 415.183 146.361 414.601 146.361 413.942C146.361 413.291 146.266 412.72 146.077 412.232C145.887 411.739 145.607 411.357 145.236 411.084C144.865 410.808 144.406 410.669 143.861 410.669C143.293 410.669 142.819 410.815 142.44 411.107C142.065 411.395 141.783 411.787 141.594 412.283C141.408 412.775 141.315 413.328 141.315 413.942C141.315 414.563 141.41 415.128 141.599 415.635C141.793 416.139 142.077 416.541 142.452 416.84C142.83 417.135 143.3 417.283 143.861 417.283ZM152.889 418.51C152.336 418.51 151.834 418.406 151.384 418.198C150.933 417.986 150.575 417.681 150.31 417.283C150.045 416.881 149.912 416.397 149.912 415.828C149.912 415.328 150.01 414.923 150.207 414.612C150.404 414.298 150.668 414.052 150.997 413.874C151.327 413.696 151.69 413.563 152.088 413.476C152.49 413.385 152.893 413.313 153.298 413.26C153.829 413.192 154.259 413.141 154.588 413.107C154.921 413.069 155.164 413.006 155.315 412.919C155.471 412.832 155.548 412.681 155.548 412.465V412.419C155.548 411.859 155.395 411.423 155.088 411.112C154.785 410.802 154.325 410.647 153.707 410.647C153.067 410.647 152.565 410.787 152.202 411.067C151.838 411.347 151.582 411.647 151.435 411.965L150.162 411.51C150.389 410.98 150.692 410.567 151.071 410.272C151.454 409.972 151.87 409.764 152.321 409.647C152.776 409.525 153.223 409.465 153.662 409.465C153.942 409.465 154.264 409.499 154.628 409.567C154.995 409.631 155.349 409.766 155.69 409.97C156.035 410.175 156.321 410.484 156.548 410.897C156.776 411.309 156.889 411.862 156.889 412.556V418.306H155.548V417.124H155.48C155.389 417.313 155.238 417.516 155.026 417.732C154.813 417.948 154.531 418.131 154.179 418.283C153.827 418.434 153.397 418.51 152.889 418.51ZM153.094 417.306C153.624 417.306 154.071 417.201 154.435 416.993C154.802 416.785 155.079 416.516 155.264 416.186C155.454 415.857 155.548 415.51 155.548 415.147V413.919C155.491 413.987 155.366 414.05 155.173 414.107C154.984 414.16 154.764 414.207 154.514 414.249C154.268 414.287 154.027 414.321 153.793 414.351C153.562 414.378 153.374 414.4 153.23 414.419C152.882 414.465 152.556 414.539 152.253 414.641C151.954 414.739 151.711 414.889 151.526 415.09C151.344 415.287 151.253 415.556 151.253 415.897C151.253 416.362 151.425 416.715 151.77 416.953C152.118 417.188 152.56 417.306 153.094 417.306ZM162.632 418.487C161.905 418.487 161.263 418.304 160.706 417.936C160.149 417.565 159.714 417.042 159.399 416.368C159.085 415.69 158.928 414.889 158.928 413.965C158.928 413.048 159.085 412.253 159.399 411.578C159.714 410.904 160.151 410.383 160.712 410.016C161.272 409.648 161.92 409.465 162.655 409.465C163.223 409.465 163.672 409.559 164.001 409.749C164.335 409.934 164.589 410.147 164.763 410.385C164.941 410.62 165.079 410.813 165.178 410.965H165.291V406.669H166.632V418.306H165.337V416.965H165.178C165.079 417.124 164.939 417.325 164.757 417.567C164.575 417.806 164.316 418.02 163.979 418.209C163.642 418.395 163.193 418.487 162.632 418.487ZM162.814 417.283C163.352 417.283 163.806 417.143 164.178 416.862C164.549 416.578 164.831 416.186 165.024 415.686C165.217 415.183 165.314 414.601 165.314 413.942C165.314 413.291 165.219 412.72 165.03 412.232C164.84 411.739 164.56 411.357 164.189 411.084C163.818 410.808 163.359 410.669 162.814 410.669C162.246 410.669 161.772 410.815 161.393 411.107C161.018 411.395 160.736 411.787 160.547 412.283C160.361 412.775 160.268 413.328 160.268 413.942C160.268 414.563 160.363 415.128 160.553 415.635C160.746 416.139 161.03 416.541 161.405 416.84C161.784 417.135 162.253 417.283 162.814 417.283ZM172.933 418.487C172.092 418.487 171.367 418.302 170.757 417.931C170.151 417.556 169.683 417.033 169.354 416.362C169.028 415.688 168.865 414.904 168.865 414.01C168.865 413.116 169.028 412.328 169.354 411.647C169.683 410.961 170.142 410.427 170.729 410.044C171.32 409.658 172.009 409.465 172.797 409.465C173.251 409.465 173.7 409.541 174.143 409.692C174.587 409.844 174.99 410.09 175.354 410.431C175.717 410.768 176.007 411.215 176.223 411.772C176.439 412.328 176.547 413.014 176.547 413.828V414.397H169.82V413.237H175.183C175.183 412.745 175.085 412.306 174.888 411.919C174.695 411.533 174.418 411.228 174.058 411.005C173.702 410.781 173.282 410.669 172.797 410.669C172.263 410.669 171.801 410.802 171.411 411.067C171.024 411.328 170.727 411.669 170.518 412.09C170.31 412.51 170.206 412.961 170.206 413.442V414.215C170.206 414.874 170.32 415.433 170.547 415.891C170.778 416.345 171.098 416.692 171.507 416.931C171.916 417.166 172.392 417.283 172.933 417.283C173.286 417.283 173.604 417.234 173.888 417.135C174.176 417.033 174.424 416.881 174.632 416.681C174.84 416.476 175.001 416.222 175.115 415.919L176.411 416.283C176.274 416.722 176.045 417.109 175.723 417.442C175.401 417.772 175.003 418.029 174.53 418.215C174.056 418.397 173.524 418.487 172.933 418.487ZM184.768 411.533L183.564 411.874C183.488 411.673 183.376 411.478 183.229 411.289C183.085 411.095 182.888 410.936 182.638 410.811C182.388 410.686 182.068 410.624 181.678 410.624C181.143 410.624 180.698 410.747 180.342 410.993C179.99 411.236 179.814 411.544 179.814 411.919C179.814 412.253 179.935 412.516 180.178 412.709C180.42 412.902 180.799 413.063 181.314 413.192L182.609 413.51C183.39 413.7 183.971 413.989 184.354 414.38C184.736 414.766 184.928 415.264 184.928 415.874C184.928 416.374 184.784 416.821 184.496 417.215C184.212 417.609 183.814 417.919 183.303 418.147C182.791 418.374 182.196 418.487 181.518 418.487C180.628 418.487 179.892 418.294 179.308 417.908C178.725 417.522 178.356 416.957 178.2 416.215L179.473 415.897C179.594 416.366 179.823 416.719 180.161 416.953C180.501 417.188 180.946 417.306 181.496 417.306C182.121 417.306 182.617 417.173 182.984 416.908C183.356 416.639 183.541 416.317 183.541 415.942C183.541 415.639 183.435 415.385 183.223 415.181C183.011 414.972 182.685 414.817 182.246 414.715L180.791 414.374C179.992 414.184 179.405 413.891 179.03 413.493C178.659 413.092 178.473 412.59 178.473 411.987C178.473 411.495 178.611 411.059 178.888 410.681C179.168 410.302 179.549 410.005 180.03 409.789C180.515 409.573 181.064 409.465 181.678 409.465C182.541 409.465 183.219 409.654 183.712 410.033C184.208 410.412 184.56 410.912 184.768 411.533ZM195.105 418.487C194.264 418.487 193.539 418.302 192.929 417.931C192.323 417.556 191.855 417.033 191.526 416.362C191.2 415.688 191.037 414.904 191.037 414.01C191.037 413.116 191.2 412.328 191.526 411.647C191.855 410.961 192.313 410.427 192.901 410.044C193.491 409.658 194.181 409.465 194.969 409.465C195.423 409.465 195.872 409.541 196.315 409.692C196.759 409.844 197.162 410.09 197.526 410.431C197.889 410.768 198.179 411.215 198.395 411.772C198.611 412.328 198.719 413.014 198.719 413.828V414.397H191.991V413.237H197.355C197.355 412.745 197.257 412.306 197.06 411.919C196.866 411.533 196.59 411.228 196.23 411.005C195.874 410.781 195.454 410.669 194.969 410.669C194.435 410.669 193.973 410.802 193.582 411.067C193.196 411.328 192.899 411.669 192.69 412.09C192.482 412.51 192.378 412.961 192.378 413.442V414.215C192.378 414.874 192.491 415.433 192.719 415.891C192.95 416.345 193.27 416.692 193.679 416.931C194.088 417.166 194.563 417.283 195.105 417.283C195.457 417.283 195.776 417.234 196.06 417.135C196.348 417.033 196.596 416.881 196.804 416.681C197.012 416.476 197.173 416.222 197.287 415.919L198.582 416.283C198.446 416.722 198.217 417.109 197.895 417.442C197.573 417.772 197.175 418.029 196.702 418.215C196.228 418.397 195.696 418.487 195.105 418.487ZM209.145 409.578V410.715H204.44V409.578H209.145ZM205.849 418.306V408.374C205.849 407.874 205.967 407.457 206.202 407.124C206.437 406.791 206.741 406.541 207.116 406.374C207.491 406.207 207.887 406.124 208.304 406.124C208.634 406.124 208.902 406.15 209.111 406.203C209.319 406.256 209.474 406.306 209.577 406.351L209.19 407.51C209.122 407.487 209.027 407.459 208.906 407.425C208.789 407.391 208.634 407.374 208.44 407.374C207.997 407.374 207.677 407.486 207.48 407.709C207.287 407.933 207.19 408.26 207.19 408.692V418.306H205.849ZM213.342 418.51C212.789 418.51 212.287 418.406 211.837 418.198C211.386 417.986 211.028 417.681 210.763 417.283C210.498 416.881 210.365 416.397 210.365 415.828C210.365 415.328 210.464 414.923 210.661 414.612C210.857 414.298 211.121 414.052 211.45 413.874C211.78 413.696 212.143 413.563 212.541 413.476C212.943 413.385 213.346 413.313 213.751 413.26C214.282 413.192 214.712 413.141 215.041 413.107C215.375 413.069 215.617 413.006 215.768 412.919C215.924 412.832 216.001 412.681 216.001 412.465V412.419C216.001 411.859 215.848 411.423 215.541 411.112C215.238 410.802 214.778 410.647 214.161 410.647C213.52 410.647 213.018 410.787 212.655 411.067C212.291 411.347 212.036 411.647 211.888 411.965L210.615 411.51C210.842 410.98 211.145 410.567 211.524 410.272C211.907 409.972 212.323 409.764 212.774 409.647C213.229 409.525 213.676 409.465 214.115 409.465C214.395 409.465 214.717 409.499 215.081 409.567C215.448 409.631 215.803 409.766 216.143 409.97C216.488 410.175 216.774 410.484 217.001 410.897C217.229 411.309 217.342 411.862 217.342 412.556V418.306H216.001V417.124H215.933C215.842 417.313 215.691 417.516 215.479 417.732C215.267 417.948 214.984 418.131 214.632 418.283C214.28 418.434 213.85 418.51 213.342 418.51ZM213.547 417.306C214.077 417.306 214.524 417.201 214.888 416.993C215.255 416.785 215.532 416.516 215.717 416.186C215.907 415.857 216.001 415.51 216.001 415.147V413.919C215.945 413.987 215.82 414.05 215.626 414.107C215.437 414.16 215.217 414.207 214.967 414.249C214.721 414.287 214.481 414.321 214.246 414.351C214.015 414.378 213.827 414.4 213.683 414.419C213.335 414.465 213.009 414.539 212.706 414.641C212.407 414.739 212.164 414.889 211.979 415.09C211.797 415.287 211.706 415.556 211.706 415.897C211.706 416.362 211.878 416.715 212.223 416.953C212.571 417.188 213.013 417.306 213.547 417.306ZM223.585 409.578V410.715H219.062V409.578H223.585ZM220.381 407.487H221.722V415.806C221.722 416.184 221.777 416.469 221.886 416.658C222 416.844 222.144 416.969 222.318 417.033C222.496 417.094 222.684 417.124 222.881 417.124C223.028 417.124 223.15 417.116 223.244 417.101C223.339 417.082 223.415 417.067 223.472 417.056L223.744 418.26C223.653 418.294 223.527 418.328 223.364 418.362C223.201 418.4 222.994 418.419 222.744 418.419C222.366 418.419 221.994 418.338 221.631 418.175C221.271 418.012 220.972 417.764 220.733 417.431C220.498 417.097 220.381 416.677 220.381 416.169V407.487ZM229.054 418.487C228.266 418.487 227.575 418.3 226.98 417.925C226.389 417.55 225.927 417.025 225.594 416.351C225.264 415.677 225.099 414.889 225.099 413.987C225.099 413.078 225.264 412.285 225.594 411.607C225.927 410.929 226.389 410.402 226.98 410.027C227.575 409.652 228.266 409.465 229.054 409.465C229.842 409.465 230.531 409.652 231.122 410.027C231.717 410.402 232.179 410.929 232.509 411.607C232.842 412.285 233.009 413.078 233.009 413.987C233.009 414.889 232.842 415.677 232.509 416.351C232.179 417.025 231.717 417.55 231.122 417.925C230.531 418.3 229.842 418.487 229.054 418.487ZM229.054 417.283C229.652 417.283 230.145 417.13 230.531 416.823C230.918 416.516 231.204 416.112 231.389 415.612C231.575 415.112 231.668 414.571 231.668 413.987C231.668 413.404 231.575 412.861 231.389 412.357C231.204 411.853 230.918 411.446 230.531 411.135C230.145 410.825 229.652 410.669 229.054 410.669C228.455 410.669 227.963 410.825 227.577 411.135C227.19 411.446 226.904 411.853 226.719 412.357C226.533 412.861 226.44 413.404 226.44 413.987C226.44 414.571 226.533 415.112 226.719 415.612C226.904 416.112 227.19 416.516 227.577 416.823C227.963 417.13 228.455 417.283 229.054 417.283ZM241.237 411.533L240.033 411.874C239.957 411.673 239.845 411.478 239.697 411.289C239.554 411.095 239.357 410.936 239.107 410.811C238.857 410.686 238.536 410.624 238.146 410.624C237.612 410.624 237.167 410.747 236.811 410.993C236.459 411.236 236.283 411.544 236.283 411.919C236.283 412.253 236.404 412.516 236.646 412.709C236.889 412.902 237.268 413.063 237.783 413.192L239.078 413.51C239.858 413.7 240.44 413.989 240.822 414.38C241.205 414.766 241.396 415.264 241.396 415.874C241.396 416.374 241.252 416.821 240.964 417.215C240.68 417.609 240.283 417.919 239.771 418.147C239.26 418.374 238.665 418.487 237.987 418.487C237.097 418.487 236.36 418.294 235.777 417.908C235.194 417.522 234.824 416.957 234.669 416.215L235.942 415.897C236.063 416.366 236.292 416.719 236.629 416.953C236.97 417.188 237.415 417.306 237.964 417.306C238.589 417.306 239.086 417.173 239.453 416.908C239.824 416.639 240.01 416.317 240.01 415.942C240.01 415.639 239.904 415.385 239.692 415.181C239.48 414.972 239.154 414.817 238.714 414.715L237.26 414.374C236.461 414.184 235.874 413.891 235.499 413.493C235.127 413.092 234.942 412.59 234.942 411.987C234.942 411.495 235.08 411.059 235.357 410.681C235.637 410.302 236.018 410.005 236.499 409.789C236.983 409.573 237.533 409.465 238.146 409.465C239.01 409.465 239.688 409.654 240.18 410.033C240.677 410.412 241.029 410.912 241.237 411.533ZM251.46 418.487C250.642 418.487 249.938 418.294 249.347 417.908C248.756 417.522 248.301 416.989 247.983 416.311C247.665 415.633 247.506 414.859 247.506 413.987C247.506 413.101 247.669 412.319 247.994 411.641C248.324 410.959 248.782 410.427 249.369 410.044C249.96 409.658 250.65 409.465 251.438 409.465C252.051 409.465 252.604 409.578 253.097 409.806C253.589 410.033 253.992 410.351 254.307 410.76C254.621 411.169 254.816 411.647 254.892 412.192H253.551C253.449 411.794 253.222 411.442 252.869 411.135C252.521 410.825 252.051 410.669 251.46 410.669C250.938 410.669 250.479 410.806 250.085 411.078C249.695 411.347 249.39 411.728 249.17 412.22C248.955 412.709 248.847 413.283 248.847 413.942C248.847 414.616 248.953 415.203 249.165 415.703C249.381 416.203 249.684 416.592 250.074 416.868C250.468 417.145 250.93 417.283 251.46 417.283C251.809 417.283 252.125 417.222 252.409 417.101C252.693 416.98 252.934 416.806 253.131 416.578C253.328 416.351 253.468 416.078 253.551 415.76H254.892C254.816 416.275 254.629 416.739 254.33 417.152C254.034 417.561 253.642 417.887 253.153 418.13C252.669 418.368 252.104 418.487 251.46 418.487ZM262.352 414.737V409.578H263.693V418.306H262.352V416.828H262.261C262.057 417.272 261.739 417.648 261.307 417.959C260.875 418.266 260.33 418.419 259.67 418.419C259.125 418.419 258.64 418.3 258.216 418.061C257.792 417.819 257.458 417.455 257.216 416.97C256.973 416.482 256.852 415.866 256.852 415.124V409.578H258.193V415.033C258.193 415.669 258.371 416.177 258.727 416.556C259.087 416.934 259.545 417.124 260.102 417.124C260.436 417.124 260.775 417.039 261.119 416.868C261.468 416.698 261.759 416.436 261.994 416.084C262.233 415.732 262.352 415.283 262.352 414.737ZM267.49 406.669V418.306H266.149V406.669H267.49ZM273.741 409.578V410.715H269.219V409.578H273.741ZM270.537 407.487H271.878V415.806C271.878 416.184 271.933 416.469 272.043 416.658C272.156 416.844 272.3 416.969 272.474 417.033C272.652 417.094 272.84 417.124 273.037 417.124C273.185 417.124 273.306 417.116 273.401 417.101C273.495 417.082 273.571 417.067 273.628 417.056L273.901 418.26C273.81 418.294 273.683 418.328 273.52 418.362C273.357 418.4 273.151 418.419 272.901 418.419C272.522 418.419 272.151 418.338 271.787 418.175C271.427 418.012 271.128 417.764 270.889 417.431C270.654 417.097 270.537 416.677 270.537 416.169V407.487ZM281.259 414.737V409.578H282.599V418.306H281.259V416.828H281.168C280.963 417.272 280.645 417.648 280.213 417.959C279.781 418.266 279.236 418.419 278.577 418.419C278.031 418.419 277.546 418.3 277.122 418.061C276.698 417.819 276.365 417.455 276.122 416.97C275.88 416.482 275.759 415.866 275.759 415.124V409.578H277.099V415.033C277.099 415.669 277.277 416.177 277.634 416.556C277.993 416.934 278.452 417.124 279.009 417.124C279.342 417.124 279.681 417.039 280.026 416.868C280.374 416.698 280.666 416.436 280.901 416.084C281.139 415.732 281.259 415.283 281.259 414.737ZM285.055 418.306V409.578H286.351V410.897H286.442C286.601 410.465 286.889 410.114 287.305 409.845C287.722 409.576 288.192 409.442 288.714 409.442C288.813 409.442 288.936 409.444 289.084 409.448C289.232 409.451 289.343 409.457 289.419 409.465V410.828C289.374 410.817 289.269 410.8 289.107 410.777C288.947 410.751 288.779 410.737 288.601 410.737C288.177 410.737 287.798 410.826 287.464 411.005C287.135 411.179 286.874 411.421 286.68 411.732C286.491 412.039 286.396 412.389 286.396 412.783V418.306H285.055ZM293.577 418.51C293.024 418.51 292.522 418.406 292.071 418.198C291.62 417.986 291.262 417.681 290.997 417.283C290.732 416.881 290.599 416.397 290.599 415.828C290.599 415.328 290.698 414.923 290.895 414.612C291.092 414.298 291.355 414.052 291.685 413.874C292.014 413.696 292.378 413.563 292.776 413.476C293.177 413.385 293.58 413.313 293.986 413.26C294.516 413.192 294.946 413.141 295.276 413.107C295.609 413.069 295.851 413.006 296.003 412.919C296.158 412.832 296.236 412.681 296.236 412.465V412.419C296.236 411.859 296.082 411.423 295.776 411.112C295.473 410.802 295.012 410.647 294.395 410.647C293.755 410.647 293.253 410.787 292.889 411.067C292.526 411.347 292.27 411.647 292.122 411.965L290.849 411.51C291.077 410.98 291.38 410.567 291.759 410.272C292.141 409.972 292.558 409.764 293.009 409.647C293.463 409.525 293.91 409.465 294.349 409.465C294.63 409.465 294.952 409.499 295.315 409.567C295.683 409.631 296.037 409.766 296.378 409.97C296.723 410.175 297.009 410.484 297.236 410.897C297.463 411.309 297.577 411.862 297.577 412.556V418.306H296.236V417.124H296.168C296.077 417.313 295.925 417.516 295.713 417.732C295.501 417.948 295.219 418.131 294.866 418.283C294.514 418.434 294.084 418.51 293.577 418.51ZM293.781 417.306C294.312 417.306 294.759 417.201 295.122 416.993C295.49 416.785 295.766 416.516 295.952 416.186C296.141 415.857 296.236 415.51 296.236 415.147V413.919C296.179 413.987 296.054 414.05 295.861 414.107C295.671 414.16 295.452 414.207 295.202 414.249C294.955 414.287 294.715 414.321 294.48 414.351C294.249 414.378 294.062 414.4 293.918 414.419C293.569 414.465 293.243 414.539 292.94 414.641C292.641 414.739 292.399 414.889 292.213 415.09C292.031 415.287 291.94 415.556 291.94 415.897C291.94 416.362 292.113 416.715 292.457 416.953C292.806 417.188 293.247 417.306 293.781 417.306ZM300.024 418.306V409.578H301.365V418.306H300.024ZM300.706 408.124C300.445 408.124 300.219 408.035 300.03 407.857C299.844 407.679 299.751 407.465 299.751 407.215C299.751 406.965 299.844 406.751 300.03 406.573C300.219 406.395 300.445 406.306 300.706 406.306C300.967 406.306 301.191 406.395 301.376 406.573C301.566 406.751 301.661 406.965 301.661 407.215C301.661 407.465 301.566 407.679 301.376 407.857C301.191 408.035 300.967 408.124 300.706 408.124ZM310.003 411.533L308.798 411.874C308.723 411.673 308.611 411.478 308.463 411.289C308.319 411.095 308.122 410.936 307.872 410.811C307.622 410.686 307.302 410.624 306.912 410.624C306.378 410.624 305.933 410.747 305.577 410.993C305.224 411.236 305.048 411.544 305.048 411.919C305.048 412.253 305.17 412.516 305.412 412.709C305.654 412.902 306.033 413.063 306.548 413.192L307.844 413.51C308.624 413.7 309.205 413.989 309.588 414.38C309.971 414.766 310.162 415.264 310.162 415.874C310.162 416.374 310.018 416.821 309.73 417.215C309.446 417.609 309.048 417.919 308.537 418.147C308.026 418.374 307.431 418.487 306.753 418.487C305.863 418.487 305.126 418.294 304.543 417.908C303.959 417.522 303.59 416.957 303.435 416.215L304.707 415.897C304.829 416.366 305.058 416.719 305.395 416.953C305.736 417.188 306.181 417.306 306.73 417.306C307.355 417.306 307.851 417.173 308.219 416.908C308.59 416.639 308.776 416.317 308.776 415.942C308.776 415.639 308.67 415.385 308.457 415.181C308.245 414.972 307.92 414.817 307.48 414.715L306.026 414.374C305.226 414.184 304.639 413.891 304.264 413.493C303.893 413.092 303.707 412.59 303.707 411.987C303.707 411.495 303.846 411.059 304.122 410.681C304.402 410.302 304.783 410.005 305.264 409.789C305.749 409.573 306.298 409.465 306.912 409.465C307.776 409.465 308.454 409.654 308.946 410.033C309.442 410.412 309.795 410.912 310.003 411.533ZM319.976 418.487C319.249 418.487 318.607 418.304 318.05 417.936C317.493 417.565 317.057 417.042 316.743 416.368C316.429 415.69 316.271 414.889 316.271 413.965C316.271 413.048 316.429 412.253 316.743 411.578C317.057 410.904 317.495 410.383 318.055 410.016C318.616 409.648 319.264 409.465 319.999 409.465C320.567 409.465 321.016 409.559 321.345 409.749C321.679 409.934 321.932 410.147 322.107 410.385C322.285 410.62 322.423 410.813 322.521 410.965H322.635V406.669H323.976V418.306H322.68V416.965H322.521C322.423 417.124 322.283 417.325 322.101 417.567C321.919 417.806 321.66 418.02 321.322 418.209C320.985 418.395 320.536 418.487 319.976 418.487ZM320.158 417.283C320.696 417.283 321.15 417.143 321.521 416.862C321.893 416.578 322.175 416.186 322.368 415.686C322.561 415.183 322.658 414.601 322.658 413.942C322.658 413.291 322.563 412.72 322.374 412.232C322.184 411.739 321.904 411.357 321.533 411.084C321.161 410.808 320.703 410.669 320.158 410.669C319.589 410.669 319.116 410.815 318.737 411.107C318.362 411.395 318.08 411.787 317.891 412.283C317.705 412.775 317.612 413.328 317.612 413.942C317.612 414.563 317.707 415.128 317.896 415.635C318.089 416.139 318.374 416.541 318.749 416.84C319.127 417.135 319.597 417.283 320.158 417.283ZM330.163 418.487C329.375 418.487 328.684 418.3 328.089 417.925C327.499 417.55 327.036 417.025 326.703 416.351C326.374 415.677 326.209 414.889 326.209 413.987C326.209 413.078 326.374 412.285 326.703 411.607C327.036 410.929 327.499 410.402 328.089 410.027C328.684 409.652 329.375 409.465 330.163 409.465C330.951 409.465 331.641 409.652 332.232 410.027C332.826 410.402 333.288 410.929 333.618 411.607C333.951 412.285 334.118 413.078 334.118 413.987C334.118 414.889 333.951 415.677 333.618 416.351C333.288 417.025 332.826 417.55 332.232 417.925C331.641 418.3 330.951 418.487 330.163 418.487ZM330.163 417.283C330.762 417.283 331.254 417.13 331.641 416.823C332.027 416.516 332.313 416.112 332.499 415.612C332.684 415.112 332.777 414.571 332.777 413.987C332.777 413.404 332.684 412.861 332.499 412.357C332.313 411.853 332.027 411.446 331.641 411.135C331.254 410.825 330.762 410.669 330.163 410.669C329.565 410.669 329.072 410.825 328.686 411.135C328.3 411.446 328.014 411.853 327.828 412.357C327.643 412.861 327.55 413.404 327.55 413.987C327.55 414.571 327.643 415.112 327.828 415.612C328.014 416.112 328.3 416.516 328.686 416.823C329.072 417.13 329.565 417.283 330.163 417.283ZM342.347 411.533L341.142 411.874C341.066 411.673 340.955 411.478 340.807 411.289C340.663 411.095 340.466 410.936 340.216 410.811C339.966 410.686 339.646 410.624 339.256 410.624C338.722 410.624 338.277 410.747 337.92 410.993C337.568 411.236 337.392 411.544 337.392 411.919C337.392 412.253 337.513 412.516 337.756 412.709C337.998 412.902 338.377 413.063 338.892 413.192L340.188 413.51C340.968 413.7 341.549 413.989 341.932 414.38C342.314 414.766 342.506 415.264 342.506 415.874C342.506 416.374 342.362 416.821 342.074 417.215C341.79 417.609 341.392 417.919 340.881 418.147C340.369 418.374 339.775 418.487 339.097 418.487C338.206 418.487 337.47 418.294 336.886 417.908C336.303 417.522 335.934 416.957 335.778 416.215L337.051 415.897C337.172 416.366 337.402 416.719 337.739 416.953C338.08 417.188 338.525 417.306 339.074 417.306C339.699 417.306 340.195 417.173 340.562 416.908C340.934 416.639 341.119 416.317 341.119 415.942C341.119 415.639 341.013 415.385 340.801 415.181C340.589 414.972 340.263 414.817 339.824 414.715L338.369 414.374C337.57 414.184 336.983 413.891 336.608 413.493C336.237 413.092 336.051 412.59 336.051 411.987C336.051 411.495 336.189 411.059 336.466 410.681C336.746 410.302 337.127 410.005 337.608 409.789C338.093 409.573 338.642 409.465 339.256 409.465C340.119 409.465 340.797 409.654 341.29 410.033C341.786 410.412 342.138 410.912 342.347 411.533ZM114.732 425.669V437.306H113.391V425.669H114.732ZM122.688 433.737V428.578H124.029V437.306H122.688V435.828H122.597C122.393 436.272 122.075 436.648 121.643 436.959C121.211 437.266 120.665 437.419 120.006 437.419C119.461 437.419 118.976 437.3 118.552 437.061C118.128 436.819 117.794 436.455 117.552 435.97C117.309 435.482 117.188 434.866 117.188 434.124V428.578H118.529V434.033C118.529 434.669 118.707 435.177 119.063 435.556C119.423 435.934 119.881 436.124 120.438 436.124C120.772 436.124 121.111 436.039 121.455 435.868C121.804 435.698 122.095 435.436 122.33 435.084C122.569 434.732 122.688 434.283 122.688 433.737ZM130.008 440.76C129.36 440.76 128.803 440.677 128.337 440.51C127.871 440.347 127.483 440.131 127.173 439.862C126.866 439.597 126.621 439.313 126.44 439.01L127.508 438.26C127.629 438.419 127.782 438.601 127.968 438.806C128.154 439.014 128.407 439.194 128.729 439.345C129.055 439.501 129.481 439.578 130.008 439.578C130.712 439.578 131.294 439.408 131.752 439.067C132.21 438.726 132.44 438.192 132.44 437.465V435.692H132.326C132.228 435.851 132.087 436.048 131.906 436.283C131.728 436.514 131.47 436.72 131.133 436.902C130.799 437.08 130.349 437.169 129.781 437.169C129.076 437.169 128.443 437.003 127.883 436.669C127.326 436.336 126.885 435.851 126.559 435.215C126.237 434.578 126.076 433.806 126.076 432.897C126.076 432.003 126.233 431.224 126.548 430.561C126.862 429.895 127.299 429.38 127.86 429.016C128.421 428.648 129.068 428.465 129.803 428.465C130.371 428.465 130.822 428.559 131.156 428.749C131.493 428.934 131.75 429.147 131.928 429.385C132.11 429.62 132.25 429.813 132.349 429.965H132.485V428.578H133.781V437.556C133.781 438.306 133.61 438.916 133.269 439.385C132.932 439.859 132.478 440.205 131.906 440.425C131.337 440.648 130.705 440.76 130.008 440.76ZM129.962 435.965C130.5 435.965 130.955 435.842 131.326 435.595C131.697 435.349 131.979 434.995 132.173 434.533C132.366 434.071 132.462 433.518 132.462 432.874C132.462 432.245 132.368 431.69 132.178 431.209C131.989 430.728 131.709 430.351 131.337 430.078C130.966 429.806 130.508 429.669 129.962 429.669C129.394 429.669 128.921 429.813 128.542 430.101C128.167 430.389 127.885 430.775 127.695 431.26C127.51 431.745 127.417 432.283 127.417 432.874C127.417 433.48 127.512 434.016 127.701 434.482C127.894 434.944 128.178 435.308 128.553 435.573C128.932 435.834 129.402 435.965 129.962 435.965ZM138.803 437.51C138.25 437.51 137.748 437.406 137.298 437.198C136.847 436.986 136.489 436.681 136.224 436.283C135.959 435.881 135.826 435.397 135.826 434.828C135.826 434.328 135.924 433.923 136.121 433.612C136.318 433.298 136.582 433.052 136.911 432.874C137.241 432.696 137.604 432.563 138.002 432.476C138.404 432.385 138.807 432.313 139.212 432.26C139.743 432.192 140.173 432.141 140.502 432.107C140.835 432.069 141.078 432.006 141.229 431.919C141.385 431.832 141.462 431.681 141.462 431.465V431.419C141.462 430.859 141.309 430.423 141.002 430.112C140.699 429.802 140.239 429.647 139.621 429.647C138.981 429.647 138.479 429.787 138.116 430.067C137.752 430.347 137.496 430.647 137.349 430.965L136.076 430.51C136.303 429.98 136.606 429.567 136.985 429.272C137.368 428.972 137.784 428.764 138.235 428.647C138.69 428.525 139.137 428.465 139.576 428.465C139.856 428.465 140.178 428.499 140.542 428.567C140.909 428.631 141.263 428.766 141.604 428.97C141.949 429.175 142.235 429.484 142.462 429.897C142.69 430.309 142.803 430.862 142.803 431.556V437.306H141.462V436.124H141.394C141.303 436.313 141.152 436.516 140.94 436.732C140.728 436.948 140.445 437.131 140.093 437.283C139.741 437.434 139.311 437.51 138.803 437.51ZM139.008 436.306C139.538 436.306 139.985 436.201 140.349 435.993C140.716 435.785 140.993 435.516 141.178 435.186C141.368 434.857 141.462 434.51 141.462 434.147V432.919C141.406 432.987 141.281 433.05 141.087 433.107C140.898 433.16 140.678 433.207 140.428 433.249C140.182 433.287 139.942 433.321 139.707 433.351C139.476 433.378 139.288 433.4 139.144 433.419C138.796 433.465 138.47 433.539 138.167 433.641C137.868 433.739 137.625 433.889 137.44 434.09C137.258 434.287 137.167 434.556 137.167 434.897C137.167 435.362 137.339 435.715 137.684 435.953C138.032 436.188 138.474 436.306 139.008 436.306ZM145.251 437.306V428.578H146.546V429.897H146.637C146.796 429.465 147.084 429.114 147.501 428.845C147.917 428.576 148.387 428.442 148.91 428.442C149.008 428.442 149.131 428.444 149.279 428.448C149.427 428.451 149.539 428.457 149.614 428.465V429.828C149.569 429.817 149.465 429.8 149.302 429.777C149.143 429.751 148.974 429.737 148.796 429.737C148.372 429.737 147.993 429.826 147.66 430.005C147.33 430.179 147.069 430.421 146.876 430.732C146.686 431.039 146.592 431.389 146.592 431.783V437.306H145.251ZM154.597 437.487C153.756 437.487 153.031 437.302 152.421 436.931C151.815 436.556 151.347 436.033 151.018 435.362C150.692 434.688 150.529 433.904 150.529 433.01C150.529 432.116 150.692 431.328 151.018 430.647C151.347 429.961 151.806 429.427 152.393 429.044C152.984 428.658 153.673 428.465 154.461 428.465C154.915 428.465 155.364 428.541 155.808 428.692C156.251 428.844 156.654 429.09 157.018 429.431C157.381 429.768 157.671 430.215 157.887 430.772C158.103 431.328 158.211 432.014 158.211 432.828V433.397H151.484V432.237H156.847C156.847 431.745 156.749 431.306 156.552 430.919C156.359 430.533 156.082 430.228 155.722 430.005C155.366 429.781 154.946 429.669 154.461 429.669C153.927 429.669 153.465 429.802 153.075 430.067C152.688 430.328 152.391 430.669 152.183 431.09C151.974 431.51 151.87 431.961 151.87 432.442V433.215C151.87 433.874 151.984 434.433 152.211 434.891C152.442 435.345 152.762 435.692 153.171 435.931C153.58 436.166 154.056 436.283 154.597 436.283C154.95 436.283 155.268 436.234 155.552 436.135C155.84 436.033 156.088 435.881 156.296 435.681C156.504 435.476 156.665 435.222 156.779 434.919L158.075 435.283C157.938 435.722 157.709 436.109 157.387 436.442C157.065 436.772 156.667 437.029 156.194 437.215C155.72 437.397 155.188 437.487 154.597 437.487ZM166.433 430.533L165.228 430.874C165.152 430.673 165.04 430.478 164.893 430.289C164.749 430.095 164.552 429.936 164.302 429.811C164.052 429.686 163.732 429.624 163.342 429.624C162.808 429.624 162.362 429.747 162.006 429.993C161.654 430.236 161.478 430.544 161.478 430.919C161.478 431.253 161.599 431.516 161.842 431.709C162.084 431.902 162.463 432.063 162.978 432.192L164.273 432.51C165.054 432.7 165.635 432.989 166.018 433.38C166.4 433.766 166.592 434.264 166.592 434.874C166.592 435.374 166.448 435.821 166.16 436.215C165.876 436.609 165.478 436.919 164.967 437.147C164.455 437.374 163.861 437.487 163.183 437.487C162.292 437.487 161.556 437.294 160.972 436.908C160.389 436.522 160.02 435.957 159.864 435.215L161.137 434.897C161.258 435.366 161.487 435.719 161.825 435.953C162.165 436.188 162.611 436.306 163.16 436.306C163.785 436.306 164.281 436.173 164.648 435.908C165.02 435.639 165.205 435.317 165.205 434.942C165.205 434.639 165.099 434.385 164.887 434.181C164.675 433.972 164.349 433.817 163.91 433.715L162.455 433.374C161.656 433.184 161.069 432.891 160.694 432.493C160.323 432.092 160.137 431.59 160.137 430.987C160.137 430.495 160.275 430.059 160.552 429.681C160.832 429.302 161.213 429.005 161.694 428.789C162.179 428.573 162.728 428.465 163.342 428.465C164.205 428.465 164.883 428.654 165.376 429.033C165.872 429.412 166.224 429.912 166.433 430.533ZM179.065 440.578V435.965H178.951C178.853 436.124 178.712 436.325 178.531 436.567C178.349 436.806 178.089 437.02 177.752 437.209C177.415 437.395 176.966 437.487 176.406 437.487C175.678 437.487 175.036 437.304 174.479 436.936C173.923 436.565 173.487 436.042 173.173 435.368C172.858 434.69 172.701 433.889 172.701 432.965C172.701 432.048 172.858 431.253 173.173 430.578C173.487 429.904 173.924 429.383 174.485 429.016C175.046 428.648 175.693 428.465 176.428 428.465C176.996 428.465 177.445 428.559 177.775 428.749C178.108 428.934 178.362 429.147 178.536 429.385C178.714 429.62 178.853 429.813 178.951 429.965H179.11V428.578H180.406V440.578H179.065ZM176.587 436.283C177.125 436.283 177.58 436.143 177.951 435.862C178.322 435.578 178.604 435.186 178.798 434.686C178.991 434.183 179.087 433.601 179.087 432.942C179.087 432.291 178.993 431.72 178.803 431.232C178.614 430.739 178.334 430.357 177.962 430.084C177.591 429.808 177.133 429.669 176.587 429.669C176.019 429.669 175.546 429.815 175.167 430.107C174.792 430.395 174.51 430.787 174.32 431.283C174.135 431.775 174.042 432.328 174.042 432.942C174.042 433.563 174.137 434.128 174.326 434.635C174.519 435.139 174.803 435.541 175.178 435.84C175.557 436.135 176.027 436.283 176.587 436.283ZM188.36 433.737V428.578H189.701V437.306H188.36V435.828H188.269C188.065 436.272 187.746 436.648 187.315 436.959C186.883 437.266 186.337 437.419 185.678 437.419C185.133 437.419 184.648 437.3 184.224 437.061C183.799 436.819 183.466 436.455 183.224 435.97C182.981 435.482 182.86 434.866 182.86 434.124V428.578H184.201V434.033C184.201 434.669 184.379 435.177 184.735 435.556C185.095 435.934 185.553 436.124 186.11 436.124C186.443 436.124 186.782 436.039 187.127 435.868C187.476 435.698 187.767 435.436 188.002 435.084C188.241 434.732 188.36 434.283 188.36 433.737ZM195.816 437.487C194.975 437.487 194.25 437.302 193.64 436.931C193.034 436.556 192.566 436.033 192.237 435.362C191.911 434.688 191.748 433.904 191.748 433.01C191.748 432.116 191.911 431.328 192.237 430.647C192.566 429.961 193.024 429.427 193.612 429.044C194.202 428.658 194.892 428.465 195.68 428.465C196.134 428.465 196.583 428.541 197.026 428.692C197.469 428.844 197.873 429.09 198.237 429.431C198.6 429.768 198.89 430.215 199.106 430.772C199.322 431.328 199.43 432.014 199.43 432.828V433.397H192.702V432.237H198.066C198.066 431.745 197.968 431.306 197.771 430.919C197.577 430.533 197.301 430.228 196.941 430.005C196.585 429.781 196.165 429.669 195.68 429.669C195.146 429.669 194.683 429.802 194.293 430.067C193.907 430.328 193.61 430.669 193.401 431.09C193.193 431.51 193.089 431.961 193.089 432.442V433.215C193.089 433.874 193.202 434.433 193.43 434.891C193.661 435.345 193.981 435.692 194.39 435.931C194.799 436.166 195.274 436.283 195.816 436.283C196.168 436.283 196.487 436.234 196.771 436.135C197.058 436.033 197.307 435.881 197.515 435.681C197.723 435.476 197.884 435.222 197.998 434.919L199.293 435.283C199.157 435.722 198.928 436.109 198.606 436.442C198.284 436.772 197.886 437.029 197.413 437.215C196.939 437.397 196.407 437.487 195.816 437.487ZM213.106 428.578L209.879 437.306H208.515L205.288 428.578H206.742L209.151 435.533H209.242L211.651 428.578H213.106ZM214.876 437.306V428.578H216.217V437.306H214.876ZM215.558 427.124C215.296 427.124 215.071 427.035 214.881 426.857C214.696 426.679 214.603 426.465 214.603 426.215C214.603 425.965 214.696 425.751 214.881 425.573C215.071 425.395 215.296 425.306 215.558 425.306C215.819 425.306 216.042 425.395 216.228 425.573C216.417 425.751 216.512 425.965 216.512 426.215C216.512 426.465 216.417 426.679 216.228 426.857C216.042 427.035 215.819 427.124 215.558 427.124ZM224.854 430.533L223.65 430.874C223.574 430.673 223.462 430.478 223.315 430.289C223.171 430.095 222.974 429.936 222.724 429.811C222.474 429.686 222.154 429.624 221.763 429.624C221.229 429.624 220.784 429.747 220.428 429.993C220.076 430.236 219.9 430.544 219.9 430.919C219.9 431.253 220.021 431.516 220.263 431.709C220.506 431.902 220.885 432.063 221.4 432.192L222.695 432.51C223.476 432.7 224.057 432.989 224.44 433.38C224.822 433.766 225.013 434.264 225.013 434.874C225.013 435.374 224.87 435.821 224.582 436.215C224.298 436.609 223.9 436.919 223.388 437.147C222.877 437.374 222.282 437.487 221.604 437.487C220.714 437.487 219.978 437.294 219.394 436.908C218.811 436.522 218.442 435.957 218.286 435.215L219.559 434.897C219.68 435.366 219.909 435.719 220.246 435.953C220.587 436.188 221.032 436.306 221.582 436.306C222.207 436.306 222.703 436.173 223.07 435.908C223.442 435.639 223.627 435.317 223.627 434.942C223.627 434.639 223.521 434.385 223.309 434.181C223.097 433.972 222.771 433.817 222.332 433.715L220.877 433.374C220.078 433.184 219.491 432.891 219.116 432.493C218.745 432.092 218.559 431.59 218.559 430.987C218.559 430.495 218.697 430.059 218.974 429.681C219.254 429.302 219.635 429.005 220.116 428.789C220.601 428.573 221.15 428.465 221.763 428.465C222.627 428.465 223.305 428.654 223.798 429.033C224.294 429.412 224.646 429.912 224.854 430.533ZM227.032 437.306V428.578H228.373V437.306H227.032ZM227.714 427.124C227.452 427.124 227.227 427.035 227.038 426.857C226.852 426.679 226.759 426.465 226.759 426.215C226.759 425.965 226.852 425.751 227.038 425.573C227.227 425.395 227.452 425.306 227.714 425.306C227.975 425.306 228.199 425.395 228.384 425.573C228.574 425.751 228.668 425.965 228.668 426.215C228.668 426.465 228.574 426.679 228.384 426.857C228.199 427.035 227.975 427.124 227.714 427.124ZM234.624 428.578V429.715H230.102V428.578H234.624ZM231.42 426.487H232.761V434.806C232.761 435.184 232.816 435.469 232.925 435.658C233.039 435.844 233.183 435.969 233.357 436.033C233.535 436.094 233.723 436.124 233.92 436.124C234.067 436.124 234.189 436.116 234.283 436.101C234.378 436.082 234.454 436.067 234.511 436.056L234.783 437.26C234.692 437.294 234.566 437.328 234.403 437.362C234.24 437.4 234.033 437.419 233.783 437.419C233.405 437.419 233.033 437.338 232.67 437.175C232.31 437.012 232.011 436.764 231.772 436.431C231.537 436.097 231.42 435.677 231.42 435.169V426.487ZM239.21 437.51C238.656 437.51 238.155 437.406 237.704 437.198C237.253 436.986 236.895 436.681 236.63 436.283C236.365 435.881 236.232 435.397 236.232 434.828C236.232 434.328 236.331 433.923 236.528 433.612C236.725 433.298 236.988 433.052 237.317 432.874C237.647 432.696 238.011 432.563 238.408 432.476C238.81 432.385 239.213 432.313 239.619 432.26C240.149 432.192 240.579 432.141 240.908 432.107C241.242 432.069 241.484 432.006 241.636 431.919C241.791 431.832 241.869 431.681 241.869 431.465V431.419C241.869 430.859 241.715 430.423 241.408 430.112C241.105 429.802 240.645 429.647 240.028 429.647C239.388 429.647 238.886 429.787 238.522 430.067C238.158 430.347 237.903 430.647 237.755 430.965L236.482 430.51C236.71 429.98 237.013 429.567 237.391 429.272C237.774 428.972 238.191 428.764 238.641 428.647C239.096 428.525 239.543 428.465 239.982 428.465C240.263 428.465 240.585 428.499 240.948 428.567C241.316 428.631 241.67 428.766 242.011 428.97C242.355 429.175 242.641 429.484 242.869 429.897C243.096 430.309 243.21 430.862 243.21 431.556V437.306H241.869V436.124H241.8C241.71 436.313 241.558 436.516 241.346 436.732C241.134 436.948 240.852 437.131 240.499 437.283C240.147 437.434 239.717 437.51 239.21 437.51ZM239.414 436.306C239.944 436.306 240.391 436.201 240.755 435.993C241.122 435.785 241.399 435.516 241.585 435.186C241.774 434.857 241.869 434.51 241.869 434.147V432.919C241.812 432.987 241.687 433.05 241.494 433.107C241.304 433.16 241.085 433.207 240.835 433.249C240.588 433.287 240.348 433.321 240.113 433.351C239.882 433.378 239.694 433.4 239.55 433.419C239.202 433.465 238.876 433.539 238.573 433.641C238.274 433.739 238.031 433.889 237.846 434.09C237.664 434.287 237.573 434.556 237.573 434.897C237.573 435.362 237.746 435.715 238.09 435.953C238.439 436.188 238.88 436.306 239.414 436.306ZM246.634 437.397C246.354 437.397 246.113 437.296 245.913 437.095C245.712 436.895 245.612 436.654 245.612 436.374C245.612 436.094 245.712 435.853 245.913 435.652C246.113 435.451 246.354 435.351 246.634 435.351C246.915 435.351 247.155 435.451 247.356 435.652C247.557 435.853 247.657 436.094 247.657 436.374C247.657 436.559 247.61 436.73 247.515 436.885C247.424 437.041 247.301 437.166 247.146 437.26C246.994 437.351 246.824 437.397 246.634 437.397Z" fill="black"/>
<circle cx="163.5" cy="479.806" r="4.5" fill="#C2C5CD"/>
<circle cx="180.5" cy="479.806" r="4.5" fill="#0650FF"/>
<circle cx="197.5" cy="479.806" r="4.5" fill="#C2C5CD"/>
</svg>
