<svg width="27" height="27" viewBox="0 0 27 27" fill="none" xmlns="http://www.w3.org/2000/svg">
<g clip-path="url(#clip0_606_1465)">
<path opacity="0.35" d="M26.7914 15.9734C28.1597 8.64031 23.3244 1.58634 15.9912 0.217952C8.6581 -1.15043 1.60412 3.68495 0.235737 11.0181C-1.13265 18.3512 3.70274 25.4052 11.0359 26.7736C18.369 28.142 25.423 23.3066 26.7914 15.9734Z" fill="#779AFB"/>
<path d="M13.5 21.7745C18.0697 21.7745 21.7742 18.07 21.7742 13.5003C21.7742 8.93056 18.0697 5.22607 13.5 5.22607C8.93031 5.22607 5.22583 8.93056 5.22583 13.5003C5.22583 18.07 8.93031 21.7745 13.5 21.7745Z" fill="white"/>
<path d="M7.14575 13.5072C7.14575 9.99031 9.99007 7.146 13.5069 7.146C17.0238 7.146 19.8681 9.99031 19.8681 13.5072C19.8681 17.024 17.0238 19.8684 13.5069 19.8684C9.99007 19.8684 7.14575 17.024 7.14575 13.5072Z" fill="#0650FF"/>
</g>
<defs>
<clipPath id="clip0_606_1465">
<rect width="27" height="27" fill="white"/>
</clipPath>
</defs>
</svg>
